# WaveFront *.obj file (generated by Autodesk ATF)

mtllib BigBox.mtl

g Body1

v -0.300000 0.300000 0.002000
v 0.300000 0.300000 0.002000
v 0.300000 0.300000 0.080000
v -0.300000 0.300000 0.080000
v 0.300000 -0.300000 0.002000
v 0.300000 -0.300000 0.080000
v -0.300000 -0.300000 0.002000
v -0.300000 -0.300000 0.080000
v -0.302000 -0.302000 0.080000
v 0.302000 -0.302000 0.080000
v 0.302000 0.302000 0.080000
v -0.302000 0.302000 0.080000
v -0.302000 0.302000 0.000000
v -0.302000 -0.302000 0.000000
v 0.302000 0.302000 0.000000
v 0.302000 -0.302000 0.000000
vt 0.000000 0.200000 0.000000
vt 60.000000 0.200000 0.000000
vt 0.000000 8.000000 0.000000
vt 60.000000 8.000000 0.000000
vt 0.000000 0.200000 0.000000
vt 60.000000 0.200000 0.000000
vt 0.000000 8.000000 0.000000
vt 60.000000 8.000000 0.000000
vt 0.000000 0.200000 0.000000
vt 60.000000 0.200000 0.000000
vt 0.000000 8.000000 0.000000
vt 60.000000 8.000000 0.000000
vt 0.000000 0.200000 0.000000
vt 60.000000 0.200000 0.000000
vt 0.000000 8.000000 0.000000
vt 60.000000 8.000000 0.000000
vt 30.000000 30.000000 0.000000
vt 30.000000 -30.000000 0.000000
vt 30.200000 -30.200000 0.000000
vt -30.000000 -30.000000 0.000000
vt -30.200000 -30.200000 0.000000
vt -30.000000 30.000000 0.000000
vt -30.200000 30.200000 0.000000
vt 30.200000 30.200000 0.000000
vt -0.000000 0.000000 0.000000
vt 60.400000 0.000000 0.000000
vt -0.000000 8.000000 0.000000
vt 60.400000 8.000000 0.000000
vt 0.000000 0.000000 0.000000
vt 60.400000 0.000000 0.000000
vt 0.000000 8.000000 0.000000
vt 60.400000 8.000000 0.000000
vt 0.000000 0.000000 0.000000
vt 60.400000 0.000000 0.000000
vt 0.000000 8.000000 0.000000
vt 60.400000 8.000000 0.000000
vt 0.000000 0.000000 0.000000
vt 60.400000 0.000000 0.000000
vt 0.000000 8.000000 0.000000
vt 60.400000 8.000000 0.000000
vt 30.000000 30.000000 0.000000
vt -30.000000 30.000000 0.000000
vt 30.000000 -30.000000 0.000000
vt -30.000000 -30.000000 0.000000
vt -30.200000 -30.200000 0.000000
vt 30.200000 -30.200000 0.000000
vt -30.200000 30.200000 0.000000
vt 30.200000 30.200000 0.000000
vn 0.000000 -100.000000 0.000000
vn 0.000000 -100.000000 0.000000
vn 0.000000 -100.000000 0.000000
vn 0.000000 -100.000000 0.000000
vn -100.000000 0.000000 0.000000
vn -100.000000 0.000000 0.000000
vn -100.000000 0.000000 0.000000
vn -100.000000 0.000000 0.000000
vn 100.000000 0.000000 0.000000
vn 100.000000 0.000000 0.000000
vn 100.000000 0.000000 0.000000
vn 100.000000 0.000000 0.000000
vn 0.000000 100.000000 0.000000
vn 0.000000 100.000000 0.000000
vn 0.000000 100.000000 0.000000
vn 0.000000 100.000000 0.000000
vn 0.000000 0.000000 100.000000
vn 0.000000 0.000000 100.000000
vn 0.000000 0.000000 100.000000
vn 0.000000 0.000000 100.000000
vn 0.000000 0.000000 100.000000
vn 0.000000 0.000000 100.000000
vn 0.000000 0.000000 100.000000
vn 0.000000 0.000000 100.000000
vn -100.000000 0.000000 0.000000
vn -100.000000 0.000000 0.000000
vn -100.000000 0.000000 0.000000
vn -100.000000 0.000000 0.000000
vn 0.000000 100.000000 0.000000
vn 0.000000 100.000000 0.000000
vn 0.000000 100.000000 0.000000
vn 0.000000 100.000000 0.000000
vn 100.000000 0.000000 0.000000
vn 100.000000 0.000000 0.000000
vn 100.000000 0.000000 0.000000
vn 100.000000 0.000000 0.000000
vn 0.000000 -100.000000 0.000000
vn 0.000000 -100.000000 0.000000
vn 0.000000 -100.000000 0.000000
vn 0.000000 -100.000000 0.000000
vn 0.000000 0.000000 100.000000
vn 0.000000 0.000000 100.000000
vn 0.000000 0.000000 100.000000
vn 0.000000 0.000000 100.000000
vn -0.000000 0.000000 -100.000000
vn -0.000000 0.000000 -100.000000
vn -0.000000 0.000000 -100.000000
vn -0.000000 0.000000 -100.000000
usemtl Steel_-_Satin
f 1/1/1 2/2/2 4/3/3
f 4/3/3 2/2/2 3/4/4
f 2/5/5 5/6/6 3/7/7
f 3/7/7 5/6/6 6/8/8
f 7/9/9 1/10/10 8/11/11
f 8/11/11 1/10/10 4/12/12
f 5/13/13 7/14/14 6/15/15
f 6/15/15 7/14/14 8/16/16
f 3/17/17 6/18/18 10/19/19
f 10/19/19 6/18/18 8/20/20
f 10/19/19 8/20/20 9/21/21
f 9/21/21 8/20/20 4/22/22
f 9/21/21 4/22/22 12/23/23
f 12/23/23 4/22/22 3/17/17
f 12/23/23 3/17/17 11/24/24
f 11/24/24 3/17/17 10/19/19
f 13/25/25 14/26/26 12/27/27
f 12/27/27 14/26/26 9/28/28
f 15/29/29 13/30/30 11/31/31
f 11/31/31 13/30/30 12/32/32
f 16/33/33 15/34/34 10/35/35
f 10/35/35 15/34/34 11/36/36
f 14/37/37 16/38/38 9/39/39
f 9/39/39 16/38/38 10/40/40
f 2/41/41 1/42/42 5/43/43
f 5/43/43 1/42/42 7/44/44
f 16/45/45 14/46/46 15/47/47
f 15/47/47 14/46/46 13/48/48
# 16 vertices
# 48 texture params
# 48 normals
# 28 facets

# 1 groups
