# https://github.com/mikedh/trimesh
v -0.30000000 0.30000000 0.00200000
v -0.30000000 0.30000000 0.00200000
v -0.30000000 0.30000000 0.00200000
v 0.30000000 0.30000000 0.00200000
v 0.30000000 0.30000000 0.00200000
v 0.30000000 0.30000000 0.00200000
v 0.30000000 0.30000000 0.08000000
v 0.30000000 0.30000000 0.08000000
v 0.30000000 0.30000000 0.08000000
v -0.30000000 0.30000000 0.08000000
v -0.30000000 0.30000000 0.08000000
v -0.30000000 0.30000000 0.08000000
v 0.30000000 -0.30000000 0.00200000
v 0.30000000 -0.30000000 0.00200000
v 0.30000000 -0.30000000 0.00200000
v 0.30000000 -0.30000000 0.08000000
v 0.30000000 -0.30000000 0.08000000
v 0.30000000 -0.30000000 0.08000000
v -0.30000000 -0.30000000 0.00200000
v -0.30000000 -0.30000000 0.00200000
v -0.30000000 -0.30000000 0.00200000
v -0.30000000 -0.30000000 0.08000000
v -0.30000000 -0.30000000 0.08000000
v -0.30000000 -0.30000000 0.08000000
v -0.30200000 -0.30200000 0.08000000
v -0.30200000 -0.30200000 0.08000000
v -0.30200000 -0.30200000 0.08000000
v 0.30200000 -0.30200000 0.08000000
v 0.30200000 -0.30200000 0.08000000
v 0.30200000 -0.30200000 0.08000000
v 0.30200000 0.30200000 0.08000000
v 0.30200000 0.30200000 0.08000000
v 0.30200000 0.30200000 0.08000000
v -0.30200000 0.30200000 0.08000000
v -0.30200000 0.30200000 0.08000000
v -0.30200000 0.30200000 0.08000000
v -0.30200000 0.30200000 0.00000000
v -0.30200000 0.30200000 0.00000000
v -0.30200000 0.30200000 0.00000000
v -0.30200000 -0.30200000 0.00000000
v -0.30200000 -0.30200000 0.00000000
v -0.30200000 -0.30200000 0.00000000
v 0.30200000 0.30200000 0.00000000
v 0.30200000 0.30200000 0.00000000
v 0.30200000 0.30200000 0.00000000
v 0.30200000 -0.30200000 0.00000000
v 0.30200000 -0.30200000 0.00000000
v 0.30200000 -0.30200000 0.00000000
vn 0.00000000 -100.00000000 0.00000000
vn 0.00000000 0.00000000 100.00000000
vn 100.00000000 0.00000000 0.00000000
vn -100.00000000 0.00000000 0.00000000
vn 0.00000000 0.00000000 100.00000000
vn 0.00000000 -100.00000000 0.00000000
vn -100.00000000 0.00000000 0.00000000
vn 0.00000000 0.00000000 100.00000000
vn 0.00000000 -100.00000000 0.00000000
vn 0.00000000 -100.00000000 0.00000000
vn 100.00000000 0.00000000 0.00000000
vn 0.00000000 0.00000000 100.00000000
vn -100.00000000 0.00000000 0.00000000
vn 0.00000000 100.00000000 0.00000000
vn 0.00000000 0.00000000 100.00000000
vn -100.00000000 0.00000000 0.00000000
vn 0.00000000 100.00000000 0.00000000
vn 0.00000000 0.00000000 100.00000000
vn 100.00000000 0.00000000 0.00000000
vn 0.00000000 0.00000000 100.00000000
vn 0.00000000 100.00000000 0.00000000
vn 0.00000000 100.00000000 0.00000000
vn 0.00000000 0.00000000 100.00000000
vn 100.00000000 0.00000000 0.00000000
vn -100.00000000 0.00000000 0.00000000
vn 0.00000000 -100.00000000 0.00000000
vn 0.00000000 0.00000000 100.00000000
vn 0.00000000 0.00000000 100.00000000
vn 0.00000000 -100.00000000 0.00000000
vn 100.00000000 0.00000000 0.00000000
vn 100.00000000 0.00000000 0.00000000
vn 0.00000000 0.00000000 100.00000000
vn 0.00000000 100.00000000 0.00000000
vn -100.00000000 0.00000000 0.00000000
vn 0.00000000 0.00000000 100.00000000
vn 0.00000000 100.00000000 0.00000000
vn 0.00000000 100.00000000 0.00000000
vn -100.00000000 0.00000000 0.00000000
vn -0.00000000 0.00000000 -100.00000000
vn 0.00000000 -100.00000000 0.00000000
vn -100.00000000 0.00000000 0.00000000
vn -0.00000000 0.00000000 -100.00000000
vn 100.00000000 0.00000000 0.00000000
vn 0.00000000 100.00000000 0.00000000
vn -0.00000000 0.00000000 -100.00000000
vn 100.00000000 0.00000000 0.00000000
vn 0.00000000 -100.00000000 0.00000000
vn -0.00000000 0.00000000 -100.00000000
f 1//1 6//6 10//10
f 10//10 6//6 9//9
f 4//4 13//13 7//7
f 7//7 13//13 16//16
f 19//19 3//3 24//24
f 24//24 3//3 11//11
f 14//14 21//21 17//17
f 17//17 21//21 22//22
f 8//8 18//18 28//28
f 28//28 18//18 23//23
f 28//28 23//23 27//27
f 27//27 23//23 12//12
f 27//27 12//12 35//35
f 35//35 12//12 8//8
f 35//35 8//8 32//32
f 32//32 8//8 28//28
f 38//38 41//41 34//34
f 34//34 41//41 25//25
f 44//44 37//37 33//33
f 33//33 37//37 36//36
f 46//46 43//43 30//30
f 30//30 43//43 31//31
f 40//40 47//47 26//26
f 26//26 47//47 29//29
f 5//5 2//2 15//15
f 15//15 2//2 20//20
f 48//48 42//42 45//45
f 45//45 42//42 39//39