# https://github.com/mikedh/trimesh
v -0.00350000 -0.00350000 0.00500000
v -0.00350000 -0.00350000 0.00500000
v -0.00350000 -0.00350000 0.00500000
v 0.00350000 -0.00350000 0.00500000
v 0.00350000 -0.00350000 0.00500000
v 0.00350000 -0.00350000 0.00500000
v 0.00350000 0.00350000 0.00500000
v 0.00350000 0.00350000 0.00500000
v 0.00350000 0.00350000 0.00500000
v -0.00350000 0.00350000 0.00500000
v -0.00350000 0.00350000 0.00500000
v -0.00350000 0.00350000 0.00500000
v 0.00350000 0.00350000 0.04000000
v 0.00350000 0.00350000 0.04000000
v 0.00350000 0.00350000 0.04000000
v -0.00350000 0.00350000 0.04000000
v -0.00350000 0.00350000 0.04000000
v -0.00350000 0.00350000 0.04000000
v 0.00350000 -0.00350000 0.04000000
v 0.00350000 -0.00350000 0.04000000
v 0.00350000 -0.00350000 0.04000000
v -0.00350000 -0.00350000 0.04000000
v -0.00350000 -0.00350000 0.04000000
v -0.00350000 -0.00350000 0.04000000
v -0.00200000 0.02000000 0.00500000
v -0.00200000 0.02000000 0.00500000
v -0.00200000 0.02000000 0.00500000
v -0.00200000 0.00500000 0.02500000
v -0.00200000 0.00500000 0.02500000
v -0.00200000 0.00500000 0.02500000
v 0.00200000 0.00500000 0.02500000
v 0.00200000 0.00500000 0.02500000
v 0.00200000 0.00500000 0.02500000
v 0.00200000 0.02000000 0.00500000
v 0.00200000 0.02000000 0.00500000
v 0.00200000 0.02000000 0.00500000
v -0.00200000 -0.00500000 0.02500000
v -0.00200000 -0.00500000 0.02500000
v -0.00200000 -0.00500000 0.02500000
v -0.00200000 -0.02000000 0.00500000
v -0.00200000 -0.02000000 0.00500000
v -0.00200000 -0.02000000 0.00500000
v 0.00200000 -0.02000000 0.00500000
v 0.00200000 -0.02000000 0.00500000
v 0.00200000 -0.02000000 0.00500000
v 0.00200000 -0.00500000 0.02500000
v 0.00200000 -0.00500000 0.02500000
v 0.00200000 -0.00500000 0.02500000
v 0.00200000 0.00500000 0.00500000
v 0.00200000 0.00500000 0.00500000
v 0.00200000 0.00500000 0.00500000
v 0.00200000 -0.00500000 0.00500000
v 0.00200000 -0.00500000 0.00500000
v 0.00200000 -0.00500000 0.00500000
v 0.02000000 0.00200000 0.00500000
v 0.02000000 0.00200000 0.00500000
v 0.02000000 0.00200000 0.00500000
v 0.00500000 0.00200000 0.02500000
v 0.00500000 0.00200000 0.02500000
v 0.00500000 0.00200000 0.02500000
v 0.00500000 -0.00200000 0.02500000
v 0.00500000 -0.00200000 0.02500000
v 0.00500000 -0.00200000 0.02500000
v 0.02000000 -0.00200000 0.00500000
v 0.02000000 -0.00200000 0.00500000
v 0.02000000 -0.00200000 0.00500000
v -0.00500000 0.00200000 0.02500000
v -0.00500000 0.00200000 0.02500000
v -0.00500000 0.00200000 0.02500000
v -0.02000000 0.00200000 0.00500000
v -0.02000000 0.00200000 0.00500000
v -0.02000000 0.00200000 0.00500000
v -0.02000000 -0.00200000 0.00500000
v -0.02000000 -0.00200000 0.00500000
v -0.02000000 -0.00200000 0.00500000
v -0.00500000 -0.00200000 0.02500000
v -0.00500000 -0.00200000 0.02500000
v -0.00500000 -0.00200000 0.02500000
v 0.00500000 0.00200000 0.00500000
v 0.00500000 0.00200000 0.00500000
v 0.00500000 0.00200000 0.00500000
v -0.00500000 0.00200000 0.00500000
v -0.00500000 0.00200000 0.00500000
v -0.00500000 0.00200000 0.00500000
v 0.00500000 -0.00200000 0.00500000
v 0.00500000 -0.00200000 0.00500000
v 0.00500000 -0.00200000 0.00500000
v 0.00500000 0.00500000 0.00500000
v 0.00500000 0.00500000 0.00500000
v 0.00500000 0.00500000 0.00500000
v 0.00500000 0.00500000 0.04000000
v 0.00500000 0.00500000 0.04000000
v 0.00500000 0.00500000 0.04000000
v 0.00500000 0.00150000 0.04000000
v 0.00500000 0.00150000 0.04000000
v 0.00500000 0.00150000 0.04000000
v 0.00500000 0.00150000 0.03000000
v 0.00500000 0.00150000 0.03000000
v 0.00500000 0.00150000 0.03000000
v 0.00500000 -0.00150000 0.03000000
v 0.00500000 -0.00150000 0.03000000
v 0.00500000 -0.00150000 0.03000000
v 0.00500000 -0.00150000 0.04000000
v 0.00500000 -0.00150000 0.04000000
v 0.00500000 -0.00150000 0.04000000
v 0.00500000 -0.00500000 0.04000000
v 0.00500000 -0.00500000 0.04000000
v 0.00500000 -0.00500000 0.04000000
v 0.00500000 -0.00500000 0.00500000
v 0.00500000 -0.00500000 0.00500000
v 0.00500000 -0.00500000 0.00500000
v -0.00200000 0.00500000 0.00500000
v -0.00200000 0.00500000 0.00500000
v -0.00200000 0.00500000 0.00500000
v -0.00500000 0.00500000 0.00500000
v -0.00500000 0.00500000 0.00500000
v -0.00500000 0.00500000 0.00500000
v -0.00500000 0.00500000 0.04000000
v -0.00500000 0.00500000 0.04000000
v -0.00500000 0.00500000 0.04000000
v -0.00200000 -0.00500000 0.00500000
v -0.00200000 -0.00500000 0.00500000
v -0.00200000 -0.00500000 0.00500000
v -0.00500000 -0.00500000 0.04000000
v -0.00500000 -0.00500000 0.04000000
v -0.00500000 -0.00500000 0.04000000
v -0.00500000 -0.00500000 0.00500000
v -0.00500000 -0.00500000 0.00500000
v -0.00500000 -0.00500000 0.00500000
v -0.00500000 -0.00200000 0.00500000
v -0.00500000 -0.00200000 0.00500000
v -0.00500000 -0.00200000 0.00500000
v -0.02017800 0.01767800 0.00500000
v -0.02017800 0.01767800 0.00500000
v -0.02009200 0.01832500 0.00500000
v -0.02009200 0.01832500 0.00500000
v -0.01984300 0.01892800 0.00500000
v -0.01984300 0.01892800 0.00500000
v -0.01944500 0.01944500 0.00500000
v -0.01944500 0.01944500 0.00500000
v -0.01892800 0.01984300 0.00500000
v -0.01892800 0.01984300 0.00500000
v -0.01832500 0.02009200 0.00500000
v -0.01832500 0.02009200 0.00500000
v -0.01767800 0.02017800 0.00500000
v -0.01767800 0.02017800 0.00500000
v -0.01703100 0.02009200 0.00500000
v -0.01703100 0.02009200 0.00500000
v -0.01642800 0.01984300 0.00500000
v -0.01642800 0.01984300 0.00500000
v -0.01591000 0.01944500 0.00500000
v -0.01591000 0.01944500 0.00500000
v -0.01551300 0.01892800 0.00500000
v -0.01551300 0.01892800 0.00500000
v -0.01526300 0.01832500 0.00500000
v -0.01526300 0.01832500 0.00500000
v -0.01517800 0.01767800 0.00500000
v -0.01517800 0.01767800 0.00500000
v -0.01526300 0.01703100 0.00500000
v -0.01526300 0.01703100 0.00500000
v -0.01551300 0.01642800 0.00500000
v -0.01551300 0.01642800 0.00500000
v -0.01591000 0.01591000 0.00500000
v -0.01591000 0.01591000 0.00500000
v -0.01642800 0.01551300 0.00500000
v -0.01642800 0.01551300 0.00500000
v -0.01703100 0.01526300 0.00500000
v -0.01703100 0.01526300 0.00500000
v -0.01767800 0.01517800 0.00500000
v -0.01767800 0.01517800 0.00500000
v -0.01832500 0.01526300 0.00500000
v -0.01832500 0.01526300 0.00500000
v -0.01892800 0.01551300 0.00500000
v -0.01892800 0.01551300 0.00500000
v -0.01944500 0.01591000 0.00500000
v -0.01944500 0.01591000 0.00500000
v -0.01984300 0.01642800 0.00500000
v -0.01984300 0.01642800 0.00500000
v -0.02009200 0.01703100 0.00500000
v -0.02009200 0.01703100 0.00500000
v -0.02017800 -0.01767800 0.00500000
v -0.02017800 -0.01767800 0.00500000
v -0.02009200 -0.01703100 0.00500000
v -0.02009200 -0.01703100 0.00500000
v -0.01984300 -0.01642800 0.00500000
v -0.01984300 -0.01642800 0.00500000
v -0.01944500 -0.01591000 0.00500000
v -0.01944500 -0.01591000 0.00500000
v -0.01892800 -0.01551300 0.00500000
v -0.01892800 -0.01551300 0.00500000
v -0.01832500 -0.01526300 0.00500000
v -0.01832500 -0.01526300 0.00500000
v -0.01767800 -0.01517800 0.00500000
v -0.01767800 -0.01517800 0.00500000
v -0.01703100 -0.01526300 0.00500000
v -0.01703100 -0.01526300 0.00500000
v -0.01642800 -0.01551300 0.00500000
v -0.01642800 -0.01551300 0.00500000
v -0.01591000 -0.01591000 0.00500000
v -0.01591000 -0.01591000 0.00500000
v -0.01551300 -0.01642800 0.00500000
v -0.01551300 -0.01642800 0.00500000
v -0.01526300 -0.01703100 0.00500000
v -0.01526300 -0.01703100 0.00500000
v -0.01517800 -0.01767800 0.00500000
v -0.01517800 -0.01767800 0.00500000
v -0.01526300 -0.01832500 0.00500000
v -0.01526300 -0.01832500 0.00500000
v -0.01551300 -0.01892800 0.00500000
v -0.01551300 -0.01892800 0.00500000
v -0.01591000 -0.01944500 0.00500000
v -0.01591000 -0.01944500 0.00500000
v -0.01642800 -0.01984300 0.00500000
v -0.01642800 -0.01984300 0.00500000
v -0.01703100 -0.02009200 0.00500000
v -0.01703100 -0.02009200 0.00500000
v -0.01767800 -0.02017800 0.00500000
v -0.01767800 -0.02017800 0.00500000
v -0.01832500 -0.02009200 0.00500000
v -0.01832500 -0.02009200 0.00500000
v -0.01892800 -0.01984300 0.00500000
v -0.01892800 -0.01984300 0.00500000
v -0.01944500 -0.01944500 0.00500000
v -0.01944500 -0.01944500 0.00500000
v -0.01984300 -0.01892800 0.00500000
v -0.01984300 -0.01892800 0.00500000
v -0.02009200 -0.01832500 0.00500000
v -0.02009200 -0.01832500 0.00500000
v 0.01517800 0.01767800 0.00500000
v 0.01517800 0.01767800 0.00500000
v 0.01526300 0.01832500 0.00500000
v 0.01526300 0.01832500 0.00500000
v 0.01551300 0.01892800 0.00500000
v 0.01551300 0.01892800 0.00500000
v 0.01591000 0.01944500 0.00500000
v 0.01591000 0.01944500 0.00500000
v 0.01642800 0.01984300 0.00500000
v 0.01642800 0.01984300 0.00500000
v 0.01703100 0.02009200 0.00500000
v 0.01703100 0.02009200 0.00500000
v 0.01767800 0.02017800 0.00500000
v 0.01767800 0.02017800 0.00500000
v 0.01832500 0.02009200 0.00500000
v 0.01832500 0.02009200 0.00500000
v 0.01892800 0.01984300 0.00500000
v 0.01892800 0.01984300 0.00500000
v 0.01944500 0.01944500 0.00500000
v 0.01944500 0.01944500 0.00500000
v 0.01984300 0.01892800 0.00500000
v 0.01984300 0.01892800 0.00500000
v 0.02009200 0.01832500 0.00500000
v 0.02009200 0.01832500 0.00500000
v 0.02017800 0.01767800 0.00500000
v 0.02017800 0.01767800 0.00500000
v 0.02009200 0.01703100 0.00500000
v 0.02009200 0.01703100 0.00500000
v 0.01984300 0.01642800 0.00500000
v 0.01984300 0.01642800 0.00500000
v 0.01944500 0.01591000 0.00500000
v 0.01944500 0.01591000 0.00500000
v 0.01892800 0.01551300 0.00500000
v 0.01892800 0.01551300 0.00500000
v 0.01832500 0.01526300 0.00500000
v 0.01832500 0.01526300 0.00500000
v 0.01767800 0.01517800 0.00500000
v 0.01767800 0.01517800 0.00500000
v 0.01703100 0.01526300 0.00500000
v 0.01703100 0.01526300 0.00500000
v 0.01642800 0.01551300 0.00500000
v 0.01642800 0.01551300 0.00500000
v 0.01591000 0.01591000 0.00500000
v 0.01591000 0.01591000 0.00500000
v 0.01551300 0.01642800 0.00500000
v 0.01551300 0.01642800 0.00500000
v 0.01526300 0.01703100 0.00500000
v 0.01526300 0.01703100 0.00500000
v 0.01517800 -0.01767800 0.00500000
v 0.01517800 -0.01767800 0.00500000
v 0.01526300 -0.01703100 0.00500000
v 0.01526300 -0.01703100 0.00500000
v 0.01551300 -0.01642800 0.00500000
v 0.01551300 -0.01642800 0.00500000
v 0.01591000 -0.01591000 0.00500000
v 0.01591000 -0.01591000 0.00500000
v 0.01642800 -0.01551300 0.00500000
v 0.01642800 -0.01551300 0.00500000
v 0.01703100 -0.01526300 0.00500000
v 0.01703100 -0.01526300 0.00500000
v 0.01767800 -0.01517800 0.00500000
v 0.01767800 -0.01517800 0.00500000
v 0.01832500 -0.01526300 0.00500000
v 0.01832500 -0.01526300 0.00500000
v 0.01892800 -0.01551300 0.00500000
v 0.01892800 -0.01551300 0.00500000
v 0.01944500 -0.01591000 0.00500000
v 0.01944500 -0.01591000 0.00500000
v 0.01984300 -0.01642800 0.00500000
v 0.01984300 -0.01642800 0.00500000
v 0.02009200 -0.01703100 0.00500000
v 0.02009200 -0.01703100 0.00500000
v 0.02017800 -0.01767800 0.00500000
v 0.02017800 -0.01767800 0.00500000
v 0.02009200 -0.01832500 0.00500000
v 0.02009200 -0.01832500 0.00500000
v 0.01984300 -0.01892800 0.00500000
v 0.01984300 -0.01892800 0.00500000
v 0.01944500 -0.01944500 0.00500000
v 0.01944500 -0.01944500 0.00500000
v 0.01892800 -0.01984300 0.00500000
v 0.01892800 -0.01984300 0.00500000
v 0.01832500 -0.02009200 0.00500000
v 0.01832500 -0.02009200 0.00500000
v 0.01767800 -0.02017800 0.00500000
v 0.01767800 -0.02017800 0.00500000
v 0.01703100 -0.02009200 0.00500000
v 0.01703100 -0.02009200 0.00500000
v 0.01642800 -0.01984300 0.00500000
v 0.01642800 -0.01984300 0.00500000
v 0.01591000 -0.01944500 0.00500000
v 0.01591000 -0.01944500 0.00500000
v 0.01551300 -0.01892800 0.00500000
v 0.01551300 -0.01892800 0.00500000
v 0.01526300 -0.01832500 0.00500000
v 0.01526300 -0.01832500 0.00500000
v -0.03150000 -0.00000000 0.00500000
v -0.03150000 -0.00000000 0.00500000
v -0.03140800 -0.00241100 0.00500000
v -0.03140800 -0.00241100 0.00500000
v -0.03113100 -0.00480800 0.00500000
v -0.03113100 -0.00480800 0.00500000
v -0.03067100 -0.00717700 0.00500000
v -0.03067100 -0.00717700 0.00500000
v -0.03003200 -0.00950400 0.00500000
v -0.03003200 -0.00950400 0.00500000
v -0.02921600 -0.01177500 0.00500000
v -0.02921600 -0.01177500 0.00500000
v -0.02822900 -0.01397700 0.00500000
v -0.02822900 -0.01397700 0.00500000
v -0.02707600 -0.01609700 0.00500000
v -0.02707600 -0.01609700 0.00500000
v -0.02576500 -0.01812300 0.00500000
v -0.02576500 -0.01812300 0.00500000
v -0.02430200 -0.02004200 0.00500000
v -0.02430200 -0.02004200 0.00500000
v -0.02269600 -0.02184300 0.00500000
v -0.02269600 -0.02184300 0.00500000
v -0.02095800 -0.02351600 0.00500000
v -0.02095800 -0.02351600 0.00500000
v -0.01909600 -0.02505200 0.00500000
v -0.01909600 -0.02505200 0.00500000
v -0.01712200 -0.02644000 0.00500000
v -0.01712200 -0.02644000 0.00500000
v -0.01504800 -0.02767300 0.00500000
v -0.01504800 -0.02767300 0.00500000
v -0.01288600 -0.02874400 0.00500000
v -0.01288600 -0.02874400 0.00500000
v -0.01064800 -0.02964600 0.00500000
v -0.01064800 -0.02964600 0.00500000
v -0.00834700 -0.03037400 0.00500000
v -0.00834700 -0.03037400 0.00500000
v -0.00599700 -0.03092400 0.00500000
v -0.00599700 -0.03092400 0.00500000
v -0.00361300 -0.03129200 0.00500000
v -0.00361300 -0.03129200 0.00500000
v -0.00120700 -0.03147700 0.00500000
v -0.00120700 -0.03147700 0.00500000
v 0.00120700 -0.03147700 0.00500000
v 0.00120700 -0.03147700 0.00500000
v 0.00361300 -0.03129200 0.00500000
v 0.00361300 -0.03129200 0.00500000
v 0.00599700 -0.03092400 0.00500000
v 0.00599700 -0.03092400 0.00500000
v 0.00834700 -0.03037400 0.00500000
v 0.00834700 -0.03037400 0.00500000
v 0.01064800 -0.02964600 0.00500000
v 0.01064800 -0.02964600 0.00500000
v 0.01288600 -0.02874400 0.00500000
v 0.01288600 -0.02874400 0.00500000
v 0.01504800 -0.02767300 0.00500000
v 0.01504800 -0.02767300 0.00500000
v 0.01712200 -0.02644000 0.00500000
v 0.01712200 -0.02644000 0.00500000
v 0.01909600 -0.02505200 0.00500000
v 0.01909600 -0.02505200 0.00500000
v 0.02095800 -0.02351600 0.00500000
v 0.02095800 -0.02351600 0.00500000
v 0.02269600 -0.02184300 0.00500000
v 0.02269600 -0.02184300 0.00500000
v 0.02430200 -0.02004200 0.00500000
v 0.02430200 -0.02004200 0.00500000
v 0.02576500 -0.01812300 0.00500000
v 0.02576500 -0.01812300 0.00500000
v 0.02707600 -0.01609700 0.00500000
v 0.02707600 -0.01609700 0.00500000
v 0.02822900 -0.01397700 0.00500000
v 0.02822900 -0.01397700 0.00500000
v 0.02921600 -0.01177500 0.00500000
v 0.02921600 -0.01177500 0.00500000
v 0.03003200 -0.00950400 0.00500000
v 0.03003200 -0.00950400 0.00500000
v 0.03067100 -0.00717700 0.00500000
v 0.03067100 -0.00717700 0.00500000
v 0.03113100 -0.00480800 0.00500000
v 0.03113100 -0.00480800 0.00500000
v 0.03140800 -0.00241100 0.00500000
v 0.03140800 -0.00241100 0.00500000
v 0.03150000 0.00000000 0.00500000
v 0.03150000 0.00000000 0.00500000
v 0.03140800 0.00241100 0.00500000
v 0.03140800 0.00241100 0.00500000
v 0.03113100 0.00480800 0.00500000
v 0.03113100 0.00480800 0.00500000
v 0.03067100 0.00717700 0.00500000
v 0.03067100 0.00717700 0.00500000
v 0.03003200 0.00950400 0.00500000
v 0.03003200 0.00950400 0.00500000
v 0.02921600 0.01177500 0.00500000
v 0.02921600 0.01177500 0.00500000
v 0.02822900 0.01397700 0.00500000
v 0.02822900 0.01397700 0.00500000
v 0.02707600 0.01609700 0.00500000
v 0.02707600 0.01609700 0.00500000
v 0.02576500 0.01812300 0.00500000
v 0.02576500 0.01812300 0.00500000
v 0.02430200 0.02004200 0.00500000
v 0.02430200 0.02004200 0.00500000
v 0.02269600 0.02184300 0.00500000
v 0.02269600 0.02184300 0.00500000
v 0.02095800 0.02351600 0.00500000
v 0.02095800 0.02351600 0.00500000
v 0.01909600 0.02505200 0.00500000
v 0.01909600 0.02505200 0.00500000
v 0.01712200 0.02644000 0.00500000
v 0.01712200 0.02644000 0.00500000
v 0.01504800 0.02767300 0.00500000
v 0.01504800 0.02767300 0.00500000
v 0.01288600 0.02874400 0.00500000
v 0.01288600 0.02874400 0.00500000
v 0.01064800 0.02964600 0.00500000
v 0.01064800 0.02964600 0.00500000
v 0.00834700 0.03037400 0.00500000
v 0.00834700 0.03037400 0.00500000
v 0.00599700 0.03092400 0.00500000
v 0.00599700 0.03092400 0.00500000
v 0.00361300 0.03129200 0.00500000
v 0.00361300 0.03129200 0.00500000
v 0.00120700 0.03147700 0.00500000
v 0.00120700 0.03147700 0.00500000
v -0.00120700 0.03147700 0.00500000
v -0.00120700 0.03147700 0.00500000
v -0.00361300 0.03129200 0.00500000
v -0.00361300 0.03129200 0.00500000
v -0.00599700 0.03092400 0.00500000
v -0.00599700 0.03092400 0.00500000
v -0.00834700 0.03037400 0.00500000
v -0.00834700 0.03037400 0.00500000
v -0.01064800 0.02964600 0.00500000
v -0.01064800 0.02964600 0.00500000
v -0.01288600 0.02874400 0.00500000
v -0.01288600 0.02874400 0.00500000
v -0.01504800 0.02767300 0.00500000
v -0.01504800 0.02767300 0.00500000
v -0.01712200 0.02644000 0.00500000
v -0.01712200 0.02644000 0.00500000
v -0.01909600 0.02505200 0.00500000
v -0.01909600 0.02505200 0.00500000
v -0.02095800 0.02351600 0.00500000
v -0.02095800 0.02351600 0.00500000
v -0.02269600 0.02184300 0.00500000
v -0.02269600 0.02184300 0.00500000
v -0.02430200 0.02004200 0.00500000
v -0.02430200 0.02004200 0.00500000
v -0.02576500 0.01812300 0.00500000
v -0.02576500 0.01812300 0.00500000
v -0.02707600 0.01609700 0.00500000
v -0.02707600 0.01609700 0.00500000
v -0.02822900 0.01397700 0.00500000
v -0.02822900 0.01397700 0.00500000
v -0.02921600 0.01177500 0.00500000
v -0.02921600 0.01177500 0.00500000
v -0.03003200 0.00950400 0.00500000
v -0.03003200 0.00950400 0.00500000
v -0.03067100 0.00717700 0.00500000
v -0.03067100 0.00717700 0.00500000
v -0.03113100 0.00480800 0.00500000
v -0.03113100 0.00480800 0.00500000
v -0.03140800 0.00241100 0.00500000
v -0.03140800 0.00241100 0.00500000
v -0.02017800 0.01767800 0.00000000
v -0.02017800 0.01767800 0.00000000
v -0.02009200 0.01703100 0.00000000
v -0.02009200 0.01703100 0.00000000
v -0.01984300 0.01642800 0.00000000
v -0.01984300 0.01642800 0.00000000
v -0.01944500 0.01591000 0.00000000
v -0.01944500 0.01591000 0.00000000
v -0.01892800 0.01551300 0.00000000
v -0.01892800 0.01551300 0.00000000
v -0.01832500 0.01526300 0.00000000
v -0.01832500 0.01526300 0.00000000
v -0.01767800 0.01517800 0.00000000
v -0.01767800 0.01517800 0.00000000
v -0.01703100 0.01526300 0.00000000
v -0.01703100 0.01526300 0.00000000
v -0.01642800 0.01551300 0.00000000
v -0.01642800 0.01551300 0.00000000
v -0.01591000 0.01591000 0.00000000
v -0.01591000 0.01591000 0.00000000
v -0.01551300 0.01642800 0.00000000
v -0.01551300 0.01642800 0.00000000
v -0.01526300 0.01703100 0.00000000
v -0.01526300 0.01703100 0.00000000
v -0.01517800 0.01767800 0.00000000
v -0.01517800 0.01767800 0.00000000
v -0.01526300 0.01832500 0.00000000
v -0.01526300 0.01832500 0.00000000
v -0.01551300 0.01892800 0.00000000
v -0.01551300 0.01892800 0.00000000
v -0.01591000 0.01944500 0.00000000
v -0.01591000 0.01944500 0.00000000
v -0.01642800 0.01984300 0.00000000
v -0.01642800 0.01984300 0.00000000
v -0.01703100 0.02009200 0.00000000
v -0.01703100 0.02009200 0.00000000
v -0.01767800 0.02017800 0.00000000
v -0.01767800 0.02017800 0.00000000
v -0.01832500 0.02009200 0.00000000
v -0.01832500 0.02009200 0.00000000
v -0.01892800 0.01984300 0.00000000
v -0.01892800 0.01984300 0.00000000
v -0.01944500 0.01944500 0.00000000
v -0.01944500 0.01944500 0.00000000
v -0.01984300 0.01892800 0.00000000
v -0.01984300 0.01892800 0.00000000
v -0.02009200 0.01832500 0.00000000
v -0.02009200 0.01832500 0.00000000
v -0.02017800 -0.01767800 0.00000000
v -0.02017800 -0.01767800 0.00000000
v -0.02009200 -0.01832500 0.00000000
v -0.02009200 -0.01832500 0.00000000
v -0.01984300 -0.01892800 0.00000000
v -0.01984300 -0.01892800 0.00000000
v -0.01944500 -0.01944500 0.00000000
v -0.01944500 -0.01944500 0.00000000
v -0.01892800 -0.01984300 0.00000000
v -0.01892800 -0.01984300 0.00000000
v -0.01832500 -0.02009200 0.00000000
v -0.01832500 -0.02009200 0.00000000
v -0.01767800 -0.02017800 0.00000000
v -0.01767800 -0.02017800 0.00000000
v -0.01703100 -0.02009200 0.00000000
v -0.01703100 -0.02009200 0.00000000
v -0.01642800 -0.01984300 0.00000000
v -0.01642800 -0.01984300 0.00000000
v -0.01591000 -0.01944500 0.00000000
v -0.01591000 -0.01944500 0.00000000
v -0.01551300 -0.01892800 0.00000000
v -0.01551300 -0.01892800 0.00000000
v -0.01526300 -0.01832500 0.00000000
v -0.01526300 -0.01832500 0.00000000
v -0.01517800 -0.01767800 0.00000000
v -0.01517800 -0.01767800 0.00000000
v -0.01526300 -0.01703100 0.00000000
v -0.01526300 -0.01703100 0.00000000
v -0.01551300 -0.01642800 0.00000000
v -0.01551300 -0.01642800 0.00000000
v -0.01591000 -0.01591000 0.00000000
v -0.01591000 -0.01591000 0.00000000
v -0.01642800 -0.01551300 0.00000000
v -0.01642800 -0.01551300 0.00000000
v -0.01703100 -0.01526300 0.00000000
v -0.01703100 -0.01526300 0.00000000
v -0.01767800 -0.01517800 0.00000000
v -0.01767800 -0.01517800 0.00000000
v -0.01832500 -0.01526300 0.00000000
v -0.01832500 -0.01526300 0.00000000
v -0.01892800 -0.01551300 0.00000000
v -0.01892800 -0.01551300 0.00000000
v -0.01944500 -0.01591000 0.00000000
v -0.01944500 -0.01591000 0.00000000
v -0.01984300 -0.01642800 0.00000000
v -0.01984300 -0.01642800 0.00000000
v -0.02009200 -0.01703100 0.00000000
v -0.02009200 -0.01703100 0.00000000
v 0.01517800 0.01767800 0.00000000
v 0.01517800 0.01767800 0.00000000
v 0.01526300 0.01703100 0.00000000
v 0.01526300 0.01703100 0.00000000
v 0.01551300 0.01642800 0.00000000
v 0.01551300 0.01642800 0.00000000
v 0.01591000 0.01591000 0.00000000
v 0.01591000 0.01591000 0.00000000
v 0.01642800 0.01551300 0.00000000
v 0.01642800 0.01551300 0.00000000
v 0.01703100 0.01526300 0.00000000
v 0.01703100 0.01526300 0.00000000
v 0.01767800 0.01517800 0.00000000
v 0.01767800 0.01517800 0.00000000
v 0.01832500 0.01526300 0.00000000
v 0.01832500 0.01526300 0.00000000
v 0.01892800 0.01551300 0.00000000
v 0.01892800 0.01551300 0.00000000
v 0.01944500 0.01591000 0.00000000
v 0.01944500 0.01591000 0.00000000
v 0.01984300 0.01642800 0.00000000
v 0.01984300 0.01642800 0.00000000
v 0.02009200 0.01703100 0.00000000
v 0.02009200 0.01703100 0.00000000
v 0.02017800 0.01767800 0.00000000
v 0.02017800 0.01767800 0.00000000
v 0.02009200 0.01832500 0.00000000
v 0.02009200 0.01832500 0.00000000
v 0.01984300 0.01892800 0.00000000
v 0.01984300 0.01892800 0.00000000
v 0.01944500 0.01944500 0.00000000
v 0.01944500 0.01944500 0.00000000
v 0.01892800 0.01984300 0.00000000
v 0.01892800 0.01984300 0.00000000
v 0.01832500 0.02009200 0.00000000
v 0.01832500 0.02009200 0.00000000
v 0.01767800 0.02017800 0.00000000
v 0.01767800 0.02017800 0.00000000
v 0.01703100 0.02009200 0.00000000
v 0.01703100 0.02009200 0.00000000
v 0.01642800 0.01984300 0.00000000
v 0.01642800 0.01984300 0.00000000
v 0.01591000 0.01944500 0.00000000
v 0.01591000 0.01944500 0.00000000
v 0.01551300 0.01892800 0.00000000
v 0.01551300 0.01892800 0.00000000
v 0.01526300 0.01832500 0.00000000
v 0.01526300 0.01832500 0.00000000
v 0.01517800 -0.01767800 0.00000000
v 0.01517800 -0.01767800 0.00000000
v 0.01526300 -0.01832500 0.00000000
v 0.01526300 -0.01832500 0.00000000
v 0.01551300 -0.01892800 0.00000000
v 0.01551300 -0.01892800 0.00000000
v 0.01591000 -0.01944500 0.00000000
v 0.01591000 -0.01944500 0.00000000
v 0.01642800 -0.01984300 0.00000000
v 0.01642800 -0.01984300 0.00000000
v 0.01703100 -0.02009200 0.00000000
v 0.01703100 -0.02009200 0.00000000
v 0.01767800 -0.02017800 0.00000000
v 0.01767800 -0.02017800 0.00000000
v 0.01832500 -0.02009200 0.00000000
v 0.01832500 -0.02009200 0.00000000
v 0.01892800 -0.01984300 0.00000000
v 0.01892800 -0.01984300 0.00000000
v 0.01944500 -0.01944500 0.00000000
v 0.01944500 -0.01944500 0.00000000
v 0.01984300 -0.01892800 0.00000000
v 0.01984300 -0.01892800 0.00000000
v 0.02009200 -0.01832500 0.00000000
v 0.02009200 -0.01832500 0.00000000
v 0.02017800 -0.01767800 0.00000000
v 0.02017800 -0.01767800 0.00000000
v 0.02009200 -0.01703100 0.00000000
v 0.02009200 -0.01703100 0.00000000
v 0.01984300 -0.01642800 0.00000000
v 0.01984300 -0.01642800 0.00000000
v 0.01944500 -0.01591000 0.00000000
v 0.01944500 -0.01591000 0.00000000
v 0.01892800 -0.01551300 0.00000000
v 0.01892800 -0.01551300 0.00000000
v 0.01832500 -0.01526300 0.00000000
v 0.01832500 -0.01526300 0.00000000
v 0.01767800 -0.01517800 0.00000000
v 0.01767800 -0.01517800 0.00000000
v 0.01703100 -0.01526300 0.00000000
v 0.01703100 -0.01526300 0.00000000
v 0.01642800 -0.01551300 0.00000000
v 0.01642800 -0.01551300 0.00000000
v 0.01591000 -0.01591000 0.00000000
v 0.01591000 -0.01591000 0.00000000
v 0.01551300 -0.01642800 0.00000000
v 0.01551300 -0.01642800 0.00000000
v 0.01526300 -0.01703100 0.00000000
v 0.01526300 -0.01703100 0.00000000
v -0.03150000 -0.00000000 0.00000000
v -0.03150000 -0.00000000 0.00000000
v -0.03140800 0.00241100 0.00000000
v -0.03140800 0.00241100 0.00000000
v -0.03113100 0.00480800 0.00000000
v -0.03113100 0.00480800 0.00000000
v -0.03067100 0.00717700 0.00000000
v -0.03067100 0.00717700 0.00000000
v -0.03003200 0.00950400 0.00000000
v -0.03003200 0.00950400 0.00000000
v -0.02921600 0.01177500 0.00000000
v -0.02921600 0.01177500 0.00000000
v -0.02822900 0.01397700 0.00000000
v -0.02822900 0.01397700 0.00000000
v -0.02707600 0.01609700 0.00000000
v -0.02707600 0.01609700 0.00000000
v -0.02576500 0.01812300 0.00000000
v -0.02576500 0.01812300 0.00000000
v -0.02430200 0.02004200 0.00000000
v -0.02430200 0.02004200 0.00000000
v -0.02269600 0.02184300 0.00000000
v -0.02269600 0.02184300 0.00000000
v -0.02095800 0.02351600 0.00000000
v -0.02095800 0.02351600 0.00000000
v -0.01909600 0.02505200 0.00000000
v -0.01909600 0.02505200 0.00000000
v -0.01712200 0.02644000 0.00000000
v -0.01712200 0.02644000 0.00000000
v -0.01504800 0.02767300 0.00000000
v -0.01504800 0.02767300 0.00000000
v -0.01288600 0.02874400 0.00000000
v -0.01288600 0.02874400 0.00000000
v -0.01064800 0.02964600 0.00000000
v -0.01064800 0.02964600 0.00000000
v -0.00834700 0.03037400 0.00000000
v -0.00834700 0.03037400 0.00000000
v -0.00599700 0.03092400 0.00000000
v -0.00599700 0.03092400 0.00000000
v -0.00361300 0.03129200 0.00000000
v -0.00361300 0.03129200 0.00000000
v -0.00120700 0.03147700 0.00000000
v -0.00120700 0.03147700 0.00000000
v 0.00120700 0.03147700 0.00000000
v 0.00120700 0.03147700 0.00000000
v 0.00361300 0.03129200 0.00000000
v 0.00361300 0.03129200 0.00000000
v 0.00599700 0.03092400 0.00000000
v 0.00599700 0.03092400 0.00000000
v 0.00834700 0.03037400 0.00000000
v 0.00834700 0.03037400 0.00000000
v 0.01064800 0.02964600 0.00000000
v 0.01064800 0.02964600 0.00000000
v 0.01288600 0.02874400 0.00000000
v 0.01288600 0.02874400 0.00000000
v 0.01504800 0.02767300 0.00000000
v 0.01504800 0.02767300 0.00000000
v 0.01712200 0.02644000 0.00000000
v 0.01712200 0.02644000 0.00000000
v 0.01909600 0.02505200 0.00000000
v 0.01909600 0.02505200 0.00000000
v 0.02095800 0.02351600 0.00000000
v 0.02095800 0.02351600 0.00000000
v 0.02269600 0.02184300 0.00000000
v 0.02269600 0.02184300 0.00000000
v 0.02430200 0.02004200 0.00000000
v 0.02430200 0.02004200 0.00000000
v 0.02576500 0.01812300 0.00000000
v 0.02576500 0.01812300 0.00000000
v 0.02707600 0.01609700 0.00000000
v 0.02707600 0.01609700 0.00000000
v 0.02822900 0.01397700 0.00000000
v 0.02822900 0.01397700 0.00000000
v 0.02921600 0.01177500 0.00000000
v 0.02921600 0.01177500 0.00000000
v 0.03003200 0.00950400 0.00000000
v 0.03003200 0.00950400 0.00000000
v 0.03067100 0.00717700 0.00000000
v 0.03067100 0.00717700 0.00000000
v 0.03113100 0.00480800 0.00000000
v 0.03113100 0.00480800 0.00000000
v 0.03140800 0.00241100 0.00000000
v 0.03140800 0.00241100 0.00000000
v 0.03150000 0.00000000 0.00000000
v 0.03150000 0.00000000 0.00000000
v 0.03140800 -0.00241100 0.00000000
v 0.03140800 -0.00241100 0.00000000
v 0.03113100 -0.00480800 0.00000000
v 0.03113100 -0.00480800 0.00000000
v 0.03067100 -0.00717700 0.00000000
v 0.03067100 -0.00717700 0.00000000
v 0.03003200 -0.00950400 0.00000000
v 0.03003200 -0.00950400 0.00000000
v 0.02921600 -0.01177500 0.00000000
v 0.02921600 -0.01177500 0.00000000
v 0.02822900 -0.01397700 0.00000000
v 0.02822900 -0.01397700 0.00000000
v 0.02707600 -0.01609700 0.00000000
v 0.02707600 -0.01609700 0.00000000
v 0.02576500 -0.01812300 0.00000000
v 0.02576500 -0.01812300 0.00000000
v 0.02430200 -0.02004200 0.00000000
v 0.02430200 -0.02004200 0.00000000
v 0.02269600 -0.02184300 0.00000000
v 0.02269600 -0.02184300 0.00000000
v 0.02095800 -0.02351600 0.00000000
v 0.02095800 -0.02351600 0.00000000
v 0.01909600 -0.02505200 0.00000000
v 0.01909600 -0.02505200 0.00000000
v 0.01712200 -0.02644000 0.00000000
v 0.01712200 -0.02644000 0.00000000
v 0.01504800 -0.02767300 0.00000000
v 0.01504800 -0.02767300 0.00000000
v 0.01288600 -0.02874400 0.00000000
v 0.01288600 -0.02874400 0.00000000
v 0.01064800 -0.02964600 0.00000000
v 0.01064800 -0.02964600 0.00000000
v 0.00834700 -0.03037400 0.00000000
v 0.00834700 -0.03037400 0.00000000
v 0.00599700 -0.03092400 0.00000000
v 0.00599700 -0.03092400 0.00000000
v 0.00361300 -0.03129200 0.00000000
v 0.00361300 -0.03129200 0.00000000
v 0.00120700 -0.03147700 0.00000000
v 0.00120700 -0.03147700 0.00000000
v -0.00120700 -0.03147700 0.00000000
v -0.00120700 -0.03147700 0.00000000
v -0.00361300 -0.03129200 0.00000000
v -0.00361300 -0.03129200 0.00000000
v -0.00599700 -0.03092400 0.00000000
v -0.00599700 -0.03092400 0.00000000
v -0.00834700 -0.03037400 0.00000000
v -0.00834700 -0.03037400 0.00000000
v -0.01064800 -0.02964600 0.00000000
v -0.01064800 -0.02964600 0.00000000
v -0.01288600 -0.02874400 0.00000000
v -0.01288600 -0.02874400 0.00000000
v -0.01504800 -0.02767300 0.00000000
v -0.01504800 -0.02767300 0.00000000
v -0.01712200 -0.02644000 0.00000000
v -0.01712200 -0.02644000 0.00000000
v -0.01909600 -0.02505200 0.00000000
v -0.01909600 -0.02505200 0.00000000
v -0.02095800 -0.02351600 0.00000000
v -0.02095800 -0.02351600 0.00000000
v -0.02269600 -0.02184300 0.00000000
v -0.02269600 -0.02184300 0.00000000
v -0.02430200 -0.02004200 0.00000000
v -0.02430200 -0.02004200 0.00000000
v -0.02576500 -0.01812300 0.00000000
v -0.02576500 -0.01812300 0.00000000
v -0.02707600 -0.01609700 0.00000000
v -0.02707600 -0.01609700 0.00000000
v -0.02822900 -0.01397700 0.00000000
v -0.02822900 -0.01397700 0.00000000
v -0.02921600 -0.01177500 0.00000000
v -0.02921600 -0.01177500 0.00000000
v -0.03003200 -0.00950400 0.00000000
v -0.03003200 -0.00950400 0.00000000
v -0.03067100 -0.00717700 0.00000000
v -0.03067100 -0.00717700 0.00000000
v -0.03113100 -0.00480800 0.00000000
v -0.03113100 -0.00480800 0.00000000
v -0.03140800 -0.00241100 0.00000000
v -0.03140800 -0.00241100 0.00000000
v 0.02500000 -0.00900000 0.07054500
v 0.02500000 -0.00900000 0.07054500
v 0.02500000 -0.00900000 0.07054500
v 0.02200000 -0.00900000 0.07054500
v 0.02200000 -0.00900000 0.07054500
v 0.02200000 -0.00900000 0.07054500
v 0.02200000 -0.00900000 0.04300000
v 0.02200000 -0.00900000 0.04300000
v 0.02200000 -0.00900000 0.04300000
v -0.02200000 -0.00900000 0.04300000
v -0.02200000 -0.00900000 0.04300000
v -0.02200000 -0.00900000 0.04300000
v -0.02200000 -0.00900000 0.07054500
v -0.02200000 -0.00900000 0.07054500
v -0.02200000 -0.00900000 0.07054500
v -0.02500000 -0.00900000 0.07054500
v -0.02500000 -0.00900000 0.07054500
v -0.02500000 -0.00900000 0.07054500
v -0.02500000 -0.00900000 0.04000000
v -0.02500000 -0.00900000 0.04000000
v -0.02500000 -0.00900000 0.04000000
v 0.02500000 -0.00900000 0.04000000
v 0.02500000 -0.00900000 0.04000000
v 0.02500000 -0.00900000 0.04000000
v 0.02500000 0.00900000 0.12000000
v 0.02500000 0.00900000 0.12000000
v 0.02500000 0.00900000 0.12000000
v 0.02500000 0.00900000 0.04000000
v 0.02500000 0.00900000 0.04000000
v 0.02500000 0.00900000 0.04000000
v -0.02500000 0.00900000 0.04000000
v -0.02500000 0.00900000 0.04000000
v -0.02500000 0.00900000 0.04000000
v -0.02500000 0.00900000 0.12000000
v -0.02500000 0.00900000 0.12000000
v -0.02500000 0.00900000 0.12000000
v 0.02200000 0.00600000 0.04300000
v 0.02200000 0.00600000 0.04300000
v 0.02200000 0.00600000 0.04300000
v -0.02200000 0.00600000 0.04300000
v -0.02200000 0.00600000 0.04300000
v -0.02200000 0.00600000 0.04300000
v 0.02200000 0.00600000 0.11175800
v 0.02200000 0.00600000 0.11175800
v 0.02200000 0.00600000 0.11175800
v -0.02200000 0.00600000 0.11175800
v -0.02200000 0.00600000 0.11175800
v -0.02200000 0.00600000 0.11175800
v 0.02000000 -0.00150000 0.04000000
v 0.02000000 -0.00150000 0.04000000
v 0.02000000 -0.00150000 0.04000000
v -0.00500000 -0.00150000 0.04000000
v -0.00500000 -0.00150000 0.04000000
v -0.00500000 -0.00150000 0.04000000
v -0.00500000 -0.00150000 0.03000000
v -0.00500000 -0.00150000 0.03000000
v -0.00500000 -0.00150000 0.03000000
v -0.00500000 0.00150000 0.03000000
v -0.00500000 0.00150000 0.03000000
v -0.00500000 0.00150000 0.03000000
v -0.00500000 0.00150000 0.04000000
v -0.00500000 0.00150000 0.04000000
v -0.00500000 0.00150000 0.04000000
v -0.02000000 0.00150000 0.04000000
v -0.02000000 0.00150000 0.04000000
v -0.02000000 0.00150000 0.04000000
v -0.02000000 -0.00150000 0.04000000
v -0.02000000 -0.00150000 0.04000000
v -0.02000000 -0.00150000 0.04000000
v 0.02000000 0.00150000 0.04000000
v 0.02000000 0.00150000 0.04000000
v 0.02000000 0.00150000 0.04000000
vn 0.00000000 0.00000000 100.00000000
vn 0.00000000 100.00000000 0.00000000
vn 100.00000000 0.00000000 0.00000000
vn 0.00000000 0.00000000 100.00000000
vn 0.00000000 100.00000000 0.00000000
vn -100.00000000 0.00000000 0.00000000
vn 0.00000000 0.00000000 100.00000000
vn 0.00000000 -100.00000000 0.00000000
vn -100.00000000 0.00000000 0.00000000
vn 100.00000000 0.00000000 0.00000000
vn 0.00000000 -100.00000000 0.00000000
vn 0.00000000 0.00000000 100.00000000
vn 0.00000000 0.00000000 -100.00000000
vn 0.00000000 -100.00000000 0.00000000
vn -100.00000000 0.00000000 0.00000000
vn 0.00000000 -100.00000000 0.00000000
vn 100.00000000 0.00000000 0.00000000
vn 0.00000000 0.00000000 -100.00000000
vn -100.00000000 0.00000000 0.00000000
vn 0.00000000 0.00000000 -100.00000000
vn 0.00000000 100.00000000 0.00000000
vn 100.00000000 0.00000000 0.00000000
vn 0.00000000 0.00000000 -100.00000000
vn 0.00000000 100.00000000 0.00000000
vn 0.00000000 80.00000000 60.00000000
vn -100.00000000 0.00000000 0.00000000
vn 0.00000000 0.00000000 100.00000000
vn 0.00000000 100.00000000 0.00000000
vn 0.00000000 80.00000000 60.00000000
vn -100.00000000 0.00000000 0.00000000
vn 0.00000000 100.00000000 0.00000000
vn 100.00000000 -0.00000000 0.00000000
vn 0.00000000 80.00000000 60.00000000
vn 0.00000000 80.00000000 60.00000000
vn 100.00000000 -0.00000000 0.00000000
vn 0.00000000 0.00000000 100.00000000
vn -100.00000000 -0.00000000 0.00000000
vn 0.00000000 -100.00000000 0.00000000
vn 0.00000000 -80.00000000 60.00000000
vn -100.00000000 -0.00000000 0.00000000
vn 0.00000000 -80.00000000 60.00000000
vn 0.00000000 0.00000000 100.00000000
vn 0.00000000 0.00000000 100.00000000
vn 100.00000000 0.00000000 0.00000000
vn 0.00000000 -80.00000000 60.00000000
vn 0.00000000 -100.00000000 0.00000000
vn 100.00000000 0.00000000 0.00000000
vn 0.00000000 -80.00000000 60.00000000
vn 100.00000000 -0.00000000 0.00000000
vn 0.00000000 100.00000000 0.00000000
vn 0.00000000 0.00000000 100.00000000
vn 0.00000000 0.00000000 100.00000000
vn 0.00000000 -100.00000000 0.00000000
vn 100.00000000 0.00000000 0.00000000
vn 80.00000000 0.00000000 60.00000000
vn 0.00000000 0.00000000 100.00000000
vn 0.00000000 100.00000000 0.00000000
vn 80.00000000 0.00000000 60.00000000
vn 100.00000000 0.00000000 0.00000000
vn 0.00000000 100.00000000 0.00000000
vn 0.00000000 -100.00000000 0.00000000
vn 100.00000000 0.00000000 0.00000000
vn 80.00000000 0.00000000 60.00000000
vn 0.00000000 -100.00000000 0.00000000
vn 80.00000000 0.00000000 60.00000000
vn 0.00000000 0.00000000 100.00000000
vn -100.00000000 0.00000000 0.00000000
vn 0.00000000 100.00000000 0.00000000
vn -80.00000000 0.00000000 60.00000000
vn -80.00000000 0.00000000 60.00000000
vn 0.00000000 0.00000000 100.00000000
vn 0.00000000 100.00000000 0.00000000
vn -80.00000000 0.00000000 60.00000000
vn 0.00000000 -100.00000000 0.00000000
vn 0.00000000 0.00000000 100.00000000
vn -80.00000000 0.00000000 60.00000000
vn 0.00000000 -100.00000000 0.00000000
vn -100.00000000 0.00000000 0.00000000
vn 0.00000000 0.00000000 100.00000000
vn 100.00000000 0.00000000 0.00000000
vn 0.00000000 100.00000000 0.00000000
vn 0.00000000 100.00000000 0.00000000
vn 0.00000000 0.00000000 100.00000000
vn -100.00000000 0.00000000 0.00000000
vn 100.00000000 0.00000000 0.00000000
vn 0.00000000 -100.00000000 0.00000000
vn 0.00000000 0.00000000 100.00000000
vn 0.00000000 0.00000000 100.00000000
vn 100.00000000 0.00000000 0.00000000
vn 0.00000000 100.00000000 0.00000000
vn 0.00000000 100.00000000 0.00000000
vn 0.00000000 0.00000000 -100.00000000
vn 100.00000000 0.00000000 0.00000000
vn 0.00000000 100.00000000 0.00000000
vn 0.00000000 0.00000000 -100.00000000
vn 100.00000000 0.00000000 0.00000000
vn 100.00000000 0.00000000 0.00000000
vn 55.47001900 0.00000000 -83.20503000
vn 0.00000000 100.00000000 0.00000000
vn 0.00000000 -100.00000000 0.00000000
vn 55.47001900 0.00000000 -83.20503000
vn 100.00000000 0.00000000 0.00000000
vn 0.00000000 -100.00000000 0.00000000
vn 100.00000000 0.00000000 0.00000000
vn 0.00000000 0.00000000 -100.00000000
vn 100.00000000 0.00000000 0.00000000
vn 0.00000000 0.00000000 -100.00000000
vn 0.00000000 -100.00000000 0.00000000
vn 100.00000000 0.00000000 0.00000000
vn 0.00000000 -100.00000000 0.00000000
vn 0.00000000 0.00000000 100.00000000
vn 0.00000000 0.00000000 100.00000000
vn -100.00000000 0.00000000 0.00000000
vn 0.00000000 100.00000000 0.00000000
vn 0.00000000 100.00000000 0.00000000
vn 0.00000000 0.00000000 100.00000000
vn -100.00000000 0.00000000 0.00000000
vn -100.00000000 0.00000000 0.00000000
vn 0.00000000 0.00000000 -100.00000000
vn 0.00000000 100.00000000 0.00000000
vn -100.00000000 -0.00000000 0.00000000
vn 0.00000000 0.00000000 100.00000000
vn 0.00000000 -100.00000000 0.00000000
vn 0.00000000 -100.00000000 0.00000000
vn -100.00000000 0.00000000 0.00000000
vn 0.00000000 0.00000000 -100.00000000
vn 0.00000000 0.00000000 100.00000000
vn 0.00000000 -100.00000000 0.00000000
vn -100.00000000 0.00000000 0.00000000
vn 0.00000000 -100.00000000 0.00000000
vn -100.00000000 0.00000000 0.00000000
vn 0.00000000 0.00000000 100.00000000
vn 0.00000000 0.00000000 100.00000000
vn 100.00000000 0.00000000 0.00000000
vn 0.00000000 0.00000000 100.00000000
vn 96.59258300 -25.88190500 0.00000000
vn 86.60254000 -50.00000000 0.00000000
vn 0.00000000 0.00000000 100.00000000
vn 70.71067800 -70.71067800 0.00000000
vn 0.00000000 0.00000000 100.00000000
vn 0.00000000 0.00000000 100.00000000
vn 50.00000000 -86.60254000 0.00000000
vn 25.88190500 -96.59258300 0.00000000
vn 0.00000000 0.00000000 100.00000000
vn -0.00000000 -100.00000000 0.00000000
vn 0.00000000 0.00000000 100.00000000
vn 0.00000000 0.00000000 100.00000000
vn -25.88190500 -96.59258300 0.00000000
vn 0.00000000 0.00000000 100.00000000
vn -50.00000000 -86.60254000 0.00000000
vn -70.71067800 -70.71067800 0.00000000
vn 0.00000000 0.00000000 100.00000000
vn 0.00000000 0.00000000 100.00000000
vn -86.60254000 -50.00000000 0.00000000
vn 0.00000000 0.00000000 100.00000000
vn -96.59258300 -25.88190500 0.00000000
vn -100.00000000 0.00000000 0.00000000
vn 0.00000000 0.00000000 100.00000000
vn -96.59258300 25.88190500 0.00000000
vn 0.00000000 0.00000000 100.00000000
vn -86.60254000 50.00000000 0.00000000
vn 0.00000000 0.00000000 100.00000000
vn -70.71067800 70.71067800 0.00000000
vn 0.00000000 0.00000000 100.00000000
vn 0.00000000 0.00000000 100.00000000
vn -50.00000000 86.60254000 0.00000000
vn -25.88190500 96.59258300 0.00000000
vn 0.00000000 0.00000000 100.00000000
vn -0.00000000 100.00000000 0.00000000
vn 0.00000000 0.00000000 100.00000000
vn 25.88190500 96.59258300 0.00000000
vn 0.00000000 0.00000000 100.00000000
vn 0.00000000 0.00000000 100.00000000
vn 50.00000000 86.60254000 0.00000000
vn 0.00000000 0.00000000 100.00000000
vn 70.71067800 70.71067800 0.00000000
vn 86.60254000 50.00000000 0.00000000
vn 0.00000000 0.00000000 100.00000000
vn 96.59258300 25.88190500 0.00000000
vn 0.00000000 0.00000000 100.00000000
vn 100.00000000 0.00000000 0.00000000
vn 0.00000000 0.00000000 100.00000000
vn 96.59258300 -25.88190500 0.00000000
vn 0.00000000 0.00000000 100.00000000
vn 86.60254000 -50.00000000 0.00000000
vn 0.00000000 0.00000000 100.00000000
vn 0.00000000 0.00000000 100.00000000
vn 70.71067800 -70.71067800 0.00000000
vn 50.00000000 -86.60254000 0.00000000
vn 0.00000000 0.00000000 100.00000000
vn 0.00000000 0.00000000 100.00000000
vn 25.88190500 -96.59258300 0.00000000
vn 0.00000000 0.00000000 100.00000000
vn -0.00000000 -100.00000000 0.00000000
vn 0.00000000 0.00000000 100.00000000
vn -25.88190500 -96.59258300 0.00000000
vn 0.00000000 0.00000000 100.00000000
vn -50.00000000 -86.60254000 0.00000000
vn 0.00000000 0.00000000 100.00000000
vn -70.71067800 -70.71067800 0.00000000
vn -86.60254000 -50.00000000 0.00000000
vn 0.00000000 0.00000000 100.00000000
vn -96.59258300 -25.88190500 0.00000000
vn 0.00000000 0.00000000 100.00000000
vn 0.00000000 0.00000000 100.00000000
vn -100.00000000 0.00000000 0.00000000
vn 0.00000000 0.00000000 100.00000000
vn -96.59258300 25.88190500 0.00000000
vn 0.00000000 0.00000000 100.00000000
vn -86.60254000 50.00000000 0.00000000
vn 0.00000000 0.00000000 100.00000000
vn -70.71067800 70.71067800 0.00000000
vn -50.00000000 86.60254000 0.00000000
vn 0.00000000 0.00000000 100.00000000
vn -25.88190500 96.59258300 0.00000000
vn 0.00000000 0.00000000 100.00000000
vn 0.00000000 0.00000000 100.00000000
vn -0.00000000 100.00000000 0.00000000
vn 0.00000000 0.00000000 100.00000000
vn 25.88190500 96.59258300 0.00000000
vn 50.00000000 86.60254000 0.00000000
vn 0.00000000 0.00000000 100.00000000
vn 70.71067800 70.71067800 0.00000000
vn 0.00000000 0.00000000 100.00000000
vn 86.60254000 50.00000000 0.00000000
vn 0.00000000 0.00000000 100.00000000
vn 0.00000000 0.00000000 100.00000000
vn 96.59258300 25.88190500 0.00000000
vn 100.00000000 0.00000000 0.00000000
vn 0.00000000 0.00000000 100.00000000
vn 0.00000000 0.00000000 100.00000000
vn 96.59258300 -25.88190500 0.00000000
vn 86.60254000 -50.00000000 0.00000000
vn 0.00000000 0.00000000 100.00000000
vn 0.00000000 0.00000000 100.00000000
vn 70.71067800 -70.71067800 0.00000000
vn 50.00000000 -86.60254000 0.00000000
vn 0.00000000 0.00000000 100.00000000
vn 25.88190500 -96.59258300 0.00000000
vn 0.00000000 0.00000000 100.00000000
vn -0.00000000 -100.00000000 0.00000000
vn 0.00000000 0.00000000 100.00000000
vn 0.00000000 0.00000000 100.00000000
vn -25.88190500 -96.59258300 0.00000000
vn 0.00000000 0.00000000 100.00000000
vn -50.00000000 -86.60254000 0.00000000
vn -70.71067800 -70.71067800 0.00000000
vn 0.00000000 0.00000000 100.00000000
vn -86.60254000 -50.00000000 0.00000000
vn 0.00000000 0.00000000 100.00000000
vn 0.00000000 0.00000000 100.00000000
vn -96.59258300 -25.88190500 0.00000000
vn 0.00000000 0.00000000 100.00000000
vn -100.00000000 0.00000000 0.00000000
vn 0.00000000 0.00000000 100.00000000
vn -96.59258300 25.88190500 0.00000000
vn -86.60254000 50.00000000 0.00000000
vn 0.00000000 0.00000000 100.00000000
vn -70.71067800 70.71067800 0.00000000
vn 0.00000000 0.00000000 100.00000000
vn -50.00000000 86.60254000 0.00000000
vn 0.00000000 0.00000000 100.00000000
vn -25.88190500 96.59258300 0.00000000
vn 0.00000000 0.00000000 100.00000000
vn -0.00000000 100.00000000 0.00000000
vn 0.00000000 0.00000000 100.00000000
vn 25.88190500 96.59258300 0.00000000
vn 0.00000000 0.00000000 100.00000000
vn 50.00000000 86.60254000 0.00000000
vn 0.00000000 0.00000000 100.00000000
vn 70.71067800 70.71067800 0.00000000
vn 0.00000000 0.00000000 100.00000000
vn 86.60254000 50.00000000 0.00000000
vn 0.00000000 0.00000000 100.00000000
vn 96.59258300 25.88190500 0.00000000
vn 0.00000000 0.00000000 100.00000000
vn 0.00000000 0.00000000 100.00000000
vn 100.00000000 0.00000000 0.00000000
vn 0.00000000 0.00000000 100.00000000
vn 96.59258300 -25.88190500 0.00000000
vn 0.00000000 0.00000000 100.00000000
vn 86.60254000 -50.00000000 0.00000000
vn 0.00000000 0.00000000 100.00000000
vn 70.71067800 -70.71067800 0.00000000
vn 0.00000000 0.00000000 100.00000000
vn 50.00000000 -86.60254000 0.00000000
vn 0.00000000 0.00000000 100.00000000
vn 25.88190500 -96.59258300 0.00000000
vn -0.00000000 -100.00000000 0.00000000
vn 0.00000000 0.00000000 100.00000000
vn -25.88190500 -96.59258300 0.00000000
vn 0.00000000 0.00000000 100.00000000
vn -50.00000000 -86.60254000 0.00000000
vn 0.00000000 0.00000000 100.00000000
vn -70.71067800 -70.71067800 0.00000000
vn 0.00000000 0.00000000 100.00000000
vn 0.00000000 0.00000000 100.00000000
vn -86.60254000 -50.00000000 0.00000000
vn -96.59258300 -25.88190500 0.00000000
vn 0.00000000 0.00000000 100.00000000
vn -100.00000000 0.00000000 0.00000000
vn 0.00000000 0.00000000 100.00000000
vn 0.00000000 0.00000000 100.00000000
vn -96.59258300 25.88190500 0.00000000
vn 0.00000000 0.00000000 100.00000000
vn -86.60254000 50.00000000 0.00000000
vn -70.71067800 70.71067800 0.00000000
vn 0.00000000 0.00000000 100.00000000
vn 0.00000000 0.00000000 100.00000000
vn -50.00000000 86.60254000 0.00000000
vn -25.88190500 96.59258300 0.00000000
vn 0.00000000 0.00000000 100.00000000
vn -0.00000000 100.00000000 0.00000000
vn 0.00000000 0.00000000 100.00000000
vn 25.88190500 96.59258300 0.00000000
vn 0.00000000 0.00000000 100.00000000
vn 0.00000000 0.00000000 100.00000000
vn 50.00000000 86.60254000 0.00000000
vn 70.71067800 70.71067800 0.00000000
vn 0.00000000 0.00000000 100.00000000
vn 0.00000000 0.00000000 100.00000000
vn 86.60254000 50.00000000 0.00000000
vn 0.00000000 0.00000000 100.00000000
vn 96.59258300 25.88190500 0.00000000
vn 0.00000000 0.00000000 100.00000000
vn -100.00000000 0.00000000 -0.00000000
vn 0.00000000 0.00000000 100.00000000
vn -99.70658000 -7.65492500 0.00000000
vn 0.00000000 0.00000000 100.00000000
vn -98.82804200 -15.26492800 0.00000000
vn -97.36954200 -22.78535100 0.00000000
vn 0.00000000 0.00000000 100.00000000
vn 0.00000000 0.00000000 100.00000000
vn -95.33963900 -30.17206000 0.00000000
vn 0.00000000 0.00000000 100.00000000
vn -92.75024500 -37.38170700 0.00000000
vn 0.00000000 0.00000000 100.00000000
vn -89.61655600 -44.37198400 0.00000000
vn 0.00000000 0.00000000 100.00000000
vn -85.95696100 -51.10186800 0.00000000
vn 0.00000000 0.00000000 100.00000000
vn -81.79293600 -57.53186600 0.00000000
vn -77.14891800 -63.62424400 0.00000000
vn 0.00000000 0.00000000 100.00000000
vn -72.05215900 -69.34325000 0.00000000
vn 0.00000000 0.00000000 100.00000000
vn -66.53257000 -74.65532200 0.00000000
vn 0.00000000 0.00000000 100.00000000
vn 0.00000000 0.00000000 100.00000000
vn -60.62254100 -79.52928700 0.00000000
vn 0.00000000 0.00000000 100.00000000
vn -54.35675500 -83.93654300 0.00000000
vn -47.77198200 -87.85122500 0.00000000
vn 0.00000000 0.00000000 100.00000000
vn 0.00000000 0.00000000 100.00000000
vn -40.90686400 -91.25036200 0.00000000
vn 0.00000000 0.00000000 100.00000000
vn -33.80168800 -94.11400500 0.00000000
vn 0.00000000 0.00000000 100.00000000
vn -26.49815000 -96.42535000 0.00000000
vn 0.00000000 0.00000000 100.00000000
vn -19.03911100 -98.17083200 0.00000000
vn -11.46834300 -99.34020900 0.00000000
vn 0.00000000 0.00000000 100.00000000
vn -3.83027300 -99.92661800 0.00000000
vn 0.00000000 0.00000000 100.00000000
vn 3.83027300 -99.92661800 0.00000000
vn 0.00000000 0.00000000 100.00000000
vn 0.00000000 0.00000000 100.00000000
vn 11.46834300 -99.34020900 0.00000000
vn 19.03911100 -98.17083200 0.00000000
vn 0.00000000 0.00000000 100.00000000
vn 26.49815000 -96.42535000 0.00000000
vn 0.00000000 0.00000000 100.00000000
vn 33.80168800 -94.11400500 0.00000000
vn 0.00000000 0.00000000 100.00000000
vn 40.90686400 -91.25036200 0.00000000
vn 0.00000000 0.00000000 100.00000000
vn 0.00000000 0.00000000 100.00000000
vn 47.77198200 -87.85122500 0.00000000
vn 0.00000000 0.00000000 100.00000000
vn 54.35675500 -83.93654300 0.00000000
vn 0.00000000 0.00000000 100.00000000
vn 60.62254100 -79.52928700 0.00000000
vn 0.00000000 0.00000000 100.00000000
vn 66.53257000 -74.65532200 0.00000000
vn 0.00000000 0.00000000 100.00000000
vn 72.05215900 -69.34325000 0.00000000
vn 0.00000000 0.00000000 100.00000000
vn 77.14891800 -63.62424400 0.00000000
vn 0.00000000 0.00000000 100.00000000
vn 81.79293600 -57.53186600 0.00000000
vn 85.95696100 -51.10186800 0.00000000
vn 0.00000000 0.00000000 100.00000000
vn 89.61655600 -44.37198400 0.00000000
vn 0.00000000 0.00000000 100.00000000
vn 92.75024500 -37.38170700 0.00000000
vn 0.00000000 0.00000000 100.00000000
vn 0.00000000 0.00000000 100.00000000
vn 95.33963900 -30.17206000 0.00000000
vn 97.36954200 -22.78535100 0.00000000
vn 0.00000000 0.00000000 100.00000000
vn 0.00000000 0.00000000 100.00000000
vn 98.82804200 -15.26492800 0.00000000
vn 0.00000000 0.00000000 100.00000000
vn 99.70658000 -7.65492500 0.00000000
vn 0.00000000 0.00000000 100.00000000
vn 100.00000000 0.00000000 0.00000000
vn 0.00000000 0.00000000 100.00000000
vn 99.70658000 7.65492500 0.00000000
vn 98.82804200 15.26492800 0.00000000
vn 0.00000000 0.00000000 100.00000000
vn 0.00000000 0.00000000 100.00000000
vn 97.36954200 22.78535100 0.00000000
vn 95.33963900 30.17206000 0.00000000
vn 0.00000000 0.00000000 100.00000000
vn 92.75024500 37.38170700 0.00000000
vn 0.00000000 0.00000000 100.00000000
vn 89.61655600 44.37198400 0.00000000
vn 0.00000000 0.00000000 100.00000000
vn 85.95696100 51.10186800 0.00000000
vn 0.00000000 0.00000000 100.00000000
vn 81.79293600 57.53186600 0.00000000
vn 0.00000000 0.00000000 100.00000000
vn 0.00000000 0.00000000 100.00000000
vn 77.14891800 63.62424400 0.00000000
vn 72.05215900 69.34325000 0.00000000
vn 0.00000000 0.00000000 100.00000000
vn 66.53257000 74.65532200 0.00000000
vn 0.00000000 0.00000000 100.00000000
vn 60.62254100 79.52928700 0.00000000
vn 0.00000000 0.00000000 100.00000000
vn 54.35675500 83.93654300 0.00000000
vn 0.00000000 0.00000000 100.00000000
vn 47.77198200 87.85122500 0.00000000
vn 0.00000000 0.00000000 100.00000000
vn 0.00000000 0.00000000 100.00000000
vn 40.90686400 91.25036200 0.00000000
vn 0.00000000 0.00000000 100.00000000
vn 33.80168800 94.11400500 0.00000000
vn 0.00000000 0.00000000 100.00000000
vn 26.49815000 96.42535000 0.00000000
vn 19.03911100 98.17083200 0.00000000
vn 0.00000000 0.00000000 100.00000000
vn 11.46834300 99.34020900 0.00000000
vn 0.00000000 0.00000000 100.00000000
vn 3.83027300 99.92661800 0.00000000
vn 0.00000000 0.00000000 100.00000000
vn 0.00000000 0.00000000 100.00000000
vn -3.83027300 99.92661800 -0.00000000
vn -11.46834300 99.34020900 -0.00000000
vn 0.00000000 0.00000000 100.00000000
vn 0.00000000 0.00000000 100.00000000
vn -19.03911100 98.17083200 -0.00000000
vn -26.49815000 96.42535000 -0.00000000
vn 0.00000000 0.00000000 100.00000000
vn -33.80168800 94.11400500 -0.00000000
vn 0.00000000 0.00000000 100.00000000
vn -40.90686400 91.25036200 -0.00000000
vn 0.00000000 0.00000000 100.00000000
vn 0.00000000 0.00000000 100.00000000
vn -47.77198200 87.85122500 -0.00000000
vn -54.35675500 83.93654300 -0.00000000
vn 0.00000000 0.00000000 100.00000000
vn -60.62254100 79.52928700 -0.00000000
vn 0.00000000 0.00000000 100.00000000
vn 0.00000000 0.00000000 100.00000000
vn -66.53257000 74.65532200 -0.00000000
vn -72.05215900 69.34325000 -0.00000000
vn 0.00000000 0.00000000 100.00000000
vn -77.14891800 63.62424400 -0.00000000
vn 0.00000000 0.00000000 100.00000000
vn -81.79293600 57.53186600 -0.00000000
vn 0.00000000 0.00000000 100.00000000
vn -85.95696100 51.10186800 -0.00000000
vn 0.00000000 0.00000000 100.00000000
vn 0.00000000 0.00000000 100.00000000
vn -89.61655600 44.37198400 -0.00000000
vn -92.75024500 37.38170700 -0.00000000
vn 0.00000000 0.00000000 100.00000000
vn 0.00000000 0.00000000 100.00000000
vn -95.33963900 30.17206000 -0.00000000
vn -97.36954200 22.78535100 -0.00000000
vn 0.00000000 0.00000000 100.00000000
vn -98.82804200 15.26492800 -0.00000000
vn 0.00000000 0.00000000 100.00000000
vn -99.70658000 7.65492500 -0.00000000
vn 0.00000000 0.00000000 100.00000000
vn 100.00000000 0.00000000 0.00000000
vn 0.00000000 0.00000000 -100.00000000
vn 0.00000000 0.00000000 -100.00000000
vn 96.59258300 25.88190500 0.00000000
vn 0.00000000 0.00000000 -100.00000000
vn 86.60254000 50.00000000 0.00000000
vn 70.71067800 70.71067800 0.00000000
vn 0.00000000 0.00000000 -100.00000000
vn 50.00000000 86.60254000 0.00000000
vn 0.00000000 0.00000000 -100.00000000
vn 25.88190500 96.59258300 0.00000000
vn 0.00000000 0.00000000 -100.00000000
vn 0.00000000 0.00000000 -100.00000000
vn -0.00000000 100.00000000 0.00000000
vn 0.00000000 0.00000000 -100.00000000
vn -25.88190500 96.59258300 0.00000000
vn 0.00000000 0.00000000 -100.00000000
vn -50.00000000 86.60254000 0.00000000
vn -70.71067800 70.71067800 0.00000000
vn 0.00000000 0.00000000 -100.00000000
vn 0.00000000 0.00000000 -100.00000000
vn -86.60254000 50.00000000 0.00000000
vn 0.00000000 0.00000000 -100.00000000
vn -96.59258300 25.88190500 0.00000000
vn -100.00000000 0.00000000 0.00000000
vn 0.00000000 0.00000000 -100.00000000
vn 0.00000000 0.00000000 -100.00000000
vn -96.59258300 -25.88190500 0.00000000
vn 0.00000000 0.00000000 -100.00000000
vn -86.60254000 -50.00000000 0.00000000
vn 0.00000000 0.00000000 -100.00000000
vn -70.71067800 -70.71067800 0.00000000
vn 0.00000000 0.00000000 -100.00000000
vn -50.00000000 -86.60254000 0.00000000
vn 0.00000000 0.00000000 -100.00000000
vn -25.88190500 -96.59258300 0.00000000
vn 0.00000000 0.00000000 -100.00000000
vn -0.00000000 -100.00000000 0.00000000
vn 0.00000000 0.00000000 -100.00000000
vn 25.88190500 -96.59258300 0.00000000
vn 50.00000000 -86.60254000 0.00000000
vn 0.00000000 0.00000000 -100.00000000
vn 0.00000000 0.00000000 -100.00000000
vn 70.71067800 -70.71067800 0.00000000
vn 86.60254000 -50.00000000 0.00000000
vn 0.00000000 0.00000000 -100.00000000
vn 96.59258300 -25.88190500 0.00000000
vn 0.00000000 0.00000000 -100.00000000
vn 100.00000000 0.00000000 0.00000000
vn 0.00000000 0.00000000 -100.00000000
vn 96.59258300 25.88190500 0.00000000
vn 0.00000000 0.00000000 -100.00000000
vn 86.60254000 50.00000000 0.00000000
vn 0.00000000 0.00000000 -100.00000000
vn 0.00000000 0.00000000 -100.00000000
vn 70.71067800 70.71067800 0.00000000
vn 0.00000000 0.00000000 -100.00000000
vn 50.00000000 86.60254000 0.00000000
vn 0.00000000 0.00000000 -100.00000000
vn 25.88190500 96.59258300 0.00000000
vn 0.00000000 0.00000000 -100.00000000
vn -0.00000000 100.00000000 0.00000000
vn -25.88190500 96.59258300 0.00000000
vn 0.00000000 0.00000000 -100.00000000
vn 0.00000000 0.00000000 -100.00000000
vn -50.00000000 86.60254000 0.00000000
vn 0.00000000 0.00000000 -100.00000000
vn -70.71067800 70.71067800 0.00000000
vn -86.60254000 50.00000000 0.00000000
vn 0.00000000 0.00000000 -100.00000000
vn -96.59258300 25.88190500 0.00000000
vn 0.00000000 0.00000000 -100.00000000
vn -100.00000000 0.00000000 0.00000000
vn 0.00000000 0.00000000 -100.00000000
vn 0.00000000 0.00000000 -100.00000000
vn -96.59258300 -25.88190500 0.00000000
vn -86.60254000 -50.00000000 0.00000000
vn 0.00000000 0.00000000 -100.00000000
vn -70.71067800 -70.71067800 0.00000000
vn 0.00000000 0.00000000 -100.00000000
vn -50.00000000 -86.60254000 0.00000000
vn 0.00000000 0.00000000 -100.00000000
vn -25.88190500 -96.59258300 0.00000000
vn 0.00000000 0.00000000 -100.00000000
vn 0.00000000 0.00000000 -100.00000000
vn -0.00000000 -100.00000000 0.00000000
vn 25.88190500 -96.59258300 0.00000000
vn 0.00000000 0.00000000 -100.00000000
vn 0.00000000 0.00000000 -100.00000000
vn 50.00000000 -86.60254000 0.00000000
vn 70.71067800 -70.71067800 0.00000000
vn 0.00000000 0.00000000 -100.00000000
vn 0.00000000 0.00000000 -100.00000000
vn 86.60254000 -50.00000000 0.00000000
vn 96.59258300 -25.88190500 0.00000000
vn 0.00000000 0.00000000 -100.00000000
vn 100.00000000 0.00000000 0.00000000
vn 0.00000000 0.00000000 -100.00000000
vn 0.00000000 0.00000000 -100.00000000
vn 96.59258300 25.88190500 0.00000000
vn 0.00000000 0.00000000 -100.00000000
vn 86.60254000 50.00000000 0.00000000
vn 0.00000000 0.00000000 -100.00000000
vn 70.71067800 70.71067800 0.00000000
vn 50.00000000 86.60254000 0.00000000
vn 0.00000000 0.00000000 -100.00000000
vn 25.88190500 96.59258300 0.00000000
vn 0.00000000 0.00000000 -100.00000000
vn 0.00000000 0.00000000 -100.00000000
vn -0.00000000 100.00000000 0.00000000
vn -25.88190500 96.59258300 0.00000000
vn 0.00000000 0.00000000 -100.00000000
vn 0.00000000 0.00000000 -100.00000000
vn -50.00000000 86.60254000 0.00000000
vn 0.00000000 0.00000000 -100.00000000
vn -70.71067800 70.71067800 0.00000000
vn -86.60254000 50.00000000 0.00000000
vn 0.00000000 0.00000000 -100.00000000
vn 0.00000000 0.00000000 -100.00000000
vn -96.59258300 25.88190500 0.00000000
vn -100.00000000 0.00000000 0.00000000
vn 0.00000000 0.00000000 -100.00000000
vn -96.59258300 -25.88190500 0.00000000
vn 0.00000000 0.00000000 -100.00000000
vn 0.00000000 0.00000000 -100.00000000
vn -86.60254000 -50.00000000 0.00000000
vn 0.00000000 0.00000000 -100.00000000
vn -70.71067800 -70.71067800 0.00000000
vn 0.00000000 0.00000000 -100.00000000
vn -50.00000000 -86.60254000 0.00000000
vn 0.00000000 0.00000000 -100.00000000
vn -25.88190500 -96.59258300 0.00000000
vn -0.00000000 -100.00000000 0.00000000
vn 0.00000000 0.00000000 -100.00000000
vn 0.00000000 0.00000000 -100.00000000
vn 25.88190500 -96.59258300 0.00000000
vn 0.00000000 0.00000000 -100.00000000
vn 50.00000000 -86.60254000 0.00000000
vn 70.71067800 -70.71067800 0.00000000
vn 0.00000000 0.00000000 -100.00000000
vn 0.00000000 0.00000000 -100.00000000
vn 86.60254000 -50.00000000 0.00000000
vn 96.59258300 -25.88190500 0.00000000
vn 0.00000000 0.00000000 -100.00000000
vn 0.00000000 0.00000000 -100.00000000
vn 100.00000000 0.00000000 0.00000000
vn 0.00000000 0.00000000 -100.00000000
vn 96.59258300 25.88190500 0.00000000
vn 86.60254000 50.00000000 0.00000000
vn 0.00000000 0.00000000 -100.00000000
vn 70.71067800 70.71067800 0.00000000
vn 0.00000000 0.00000000 -100.00000000
vn 0.00000000 0.00000000 -100.00000000
vn 50.00000000 86.60254000 0.00000000
vn 0.00000000 0.00000000 -100.00000000
vn 25.88190500 96.59258300 0.00000000
vn -0.00000000 100.00000000 0.00000000
vn 0.00000000 0.00000000 -100.00000000
vn -25.88190500 96.59258300 0.00000000
vn 0.00000000 0.00000000 -100.00000000
vn 0.00000000 0.00000000 -100.00000000
vn -50.00000000 86.60254000 0.00000000
vn 0.00000000 0.00000000 -100.00000000
vn -70.71067800 70.71067800 0.00000000
vn -86.60254000 50.00000000 0.00000000
vn 0.00000000 0.00000000 -100.00000000
vn -96.59258300 25.88190500 0.00000000
vn 0.00000000 0.00000000 -100.00000000
vn 0.00000000 0.00000000 -100.00000000
vn -100.00000000 0.00000000 0.00000000
vn 0.00000000 0.00000000 -100.00000000
vn -96.59258300 -25.88190500 0.00000000
vn 0.00000000 0.00000000 -100.00000000
vn -86.60254000 -50.00000000 0.00000000
vn -70.71067800 -70.71067800 0.00000000
vn 0.00000000 0.00000000 -100.00000000
vn -50.00000000 -86.60254000 0.00000000
vn 0.00000000 0.00000000 -100.00000000
vn 0.00000000 0.00000000 -100.00000000
vn -25.88190500 -96.59258300 0.00000000
vn 0.00000000 0.00000000 -100.00000000
vn -0.00000000 -100.00000000 0.00000000
vn 0.00000000 0.00000000 -100.00000000
vn 25.88190500 -96.59258300 0.00000000
vn 50.00000000 -86.60254000 0.00000000
vn 0.00000000 0.00000000 -100.00000000
vn 70.71067800 -70.71067800 0.00000000
vn 0.00000000 0.00000000 -100.00000000
vn 86.60254000 -50.00000000 0.00000000
vn 0.00000000 0.00000000 -100.00000000
vn 96.59258300 -25.88190500 0.00000000
vn 0.00000000 0.00000000 -100.00000000
vn -100.00000000 0.00000000 -0.00000000
vn 0.00000000 0.00000000 -100.00000000
vn -99.70658000 7.65492500 -0.00000000
vn 0.00000000 0.00000000 -100.00000000
vn -98.82804200 15.26492800 -0.00000000
vn 0.00000000 0.00000000 -100.00000000
vn -97.36954200 22.78535100 -0.00000000
vn 0.00000000 0.00000000 -100.00000000
vn -95.33963900 30.17206000 -0.00000000
vn 0.00000000 0.00000000 -100.00000000
vn 0.00000000 0.00000000 -100.00000000
vn -92.75024500 37.38170700 -0.00000000
vn -89.61655600 44.37198400 -0.00000000
vn 0.00000000 0.00000000 -100.00000000
vn -85.95696100 51.10186800 -0.00000000
vn 0.00000000 0.00000000 -100.00000000
vn -81.79293600 57.53186600 -0.00000000
vn 0.00000000 0.00000000 -100.00000000
vn -77.14891800 63.62424400 -0.00000000
vn 0.00000000 0.00000000 -100.00000000
vn -72.05215900 69.34325000 -0.00000000
vn 0.00000000 0.00000000 -100.00000000
vn -66.53257000 74.65532200 -0.00000000
vn 0.00000000 0.00000000 -100.00000000
vn 0.00000000 0.00000000 -100.00000000
vn -60.62254100 79.52928700 -0.00000000
vn 0.00000000 0.00000000 -100.00000000
vn -54.35675500 83.93654300 -0.00000000
vn -47.77198200 87.85122500 -0.00000000
vn 0.00000000 0.00000000 -100.00000000
vn -40.90686400 91.25036200 -0.00000000
vn 0.00000000 0.00000000 -100.00000000
vn 0.00000000 0.00000000 -100.00000000
vn -33.80168800 94.11400500 -0.00000000
vn 0.00000000 0.00000000 -100.00000000
vn -26.49815000 96.42535000 -0.00000000
vn -19.03911100 98.17083200 -0.00000000
vn 0.00000000 0.00000000 -100.00000000
vn 0.00000000 0.00000000 -100.00000000
vn -11.46834300 99.34020900 -0.00000000
vn -3.83027300 99.92661800 -0.00000000
vn 0.00000000 0.00000000 -100.00000000
vn 3.83027300 99.92661800 0.00000000
vn 0.00000000 0.00000000 -100.00000000
vn 0.00000000 0.00000000 -100.00000000
vn 11.46834300 99.34020900 0.00000000
vn 19.03911100 98.17083200 0.00000000
vn 0.00000000 0.00000000 -100.00000000
vn 26.49815000 96.42535000 0.00000000
vn 0.00000000 0.00000000 -100.00000000
vn 33.80168800 94.11400500 0.00000000
vn 0.00000000 0.00000000 -100.00000000
vn 40.90686400 91.25036200 0.00000000
vn 0.00000000 0.00000000 -100.00000000
vn 47.77198200 87.85122500 0.00000000
vn 0.00000000 0.00000000 -100.00000000
vn 54.35675500 83.93654300 0.00000000
vn 0.00000000 0.00000000 -100.00000000
vn 0.00000000 0.00000000 -100.00000000
vn 60.62254100 79.52928700 0.00000000
vn 66.53257000 74.65532200 0.00000000
vn 0.00000000 0.00000000 -100.00000000
vn 72.05215900 69.34325000 0.00000000
vn 0.00000000 0.00000000 -100.00000000
vn 77.14891800 63.62424400 0.00000000
vn 0.00000000 0.00000000 -100.00000000
vn 81.79293600 57.53186600 0.00000000
vn 0.00000000 0.00000000 -100.00000000
vn 85.95696100 51.10186800 0.00000000
vn 0.00000000 0.00000000 -100.00000000
vn 0.00000000 0.00000000 -100.00000000
vn 89.61655600 44.37198400 0.00000000
vn 0.00000000 0.00000000 -100.00000000
vn 92.75024500 37.38170700 0.00000000
vn 0.00000000 0.00000000 -100.00000000
vn 95.33963900 30.17206000 0.00000000
vn 0.00000000 0.00000000 -100.00000000
vn 97.36954200 22.78535100 0.00000000
vn 0.00000000 0.00000000 -100.00000000
vn 98.82804200 15.26492800 0.00000000
vn 0.00000000 0.00000000 -100.00000000
vn 99.70658000 7.65492500 0.00000000
vn 0.00000000 0.00000000 -100.00000000
vn 100.00000000 0.00000000 0.00000000
vn 99.70658000 -7.65492500 0.00000000
vn 0.00000000 0.00000000 -100.00000000
vn 0.00000000 0.00000000 -100.00000000
vn 98.82804200 -15.26492800 0.00000000
vn 0.00000000 0.00000000 -100.00000000
vn 97.36954200 -22.78535100 0.00000000
vn 0.00000000 0.00000000 -100.00000000
vn 95.33963900 -30.17206000 0.00000000
vn 92.75024500 -37.38170700 0.00000000
vn 0.00000000 0.00000000 -100.00000000
vn 89.61655600 -44.37198400 0.00000000
vn 0.00000000 0.00000000 -100.00000000
vn 0.00000000 0.00000000 -100.00000000
vn 85.95696100 -51.10186800 0.00000000
vn 81.79293600 -57.53186600 0.00000000
vn 0.00000000 0.00000000 -100.00000000
vn 77.14891800 -63.62424400 0.00000000
vn 0.00000000 0.00000000 -100.00000000
vn 72.05215900 -69.34325000 0.00000000
vn 0.00000000 0.00000000 -100.00000000
vn 66.53257000 -74.65532200 0.00000000
vn 0.00000000 0.00000000 -100.00000000
vn 0.00000000 0.00000000 -100.00000000
vn 60.62254100 -79.52928700 0.00000000
vn 0.00000000 0.00000000 -100.00000000
vn 54.35675500 -83.93654300 0.00000000
vn 0.00000000 0.00000000 -100.00000000
vn 47.77198200 -87.85122500 0.00000000
vn 0.00000000 0.00000000 -100.00000000
vn 40.90686400 -91.25036200 0.00000000
vn 0.00000000 0.00000000 -100.00000000
vn 33.80168800 -94.11400500 0.00000000
vn 0.00000000 0.00000000 -100.00000000
vn 26.49815000 -96.42535000 0.00000000
vn 19.03911100 -98.17083200 0.00000000
vn 0.00000000 0.00000000 -100.00000000
vn 0.00000000 0.00000000 -100.00000000
vn 11.46834300 -99.34020900 0.00000000
vn 3.83027300 -99.92661800 0.00000000
vn 0.00000000 0.00000000 -100.00000000
vn -3.83027300 -99.92661800 0.00000000
vn 0.00000000 0.00000000 -100.00000000
vn 0.00000000 0.00000000 -100.00000000
vn -11.46834300 -99.34020900 0.00000000
vn 0.00000000 0.00000000 -100.00000000
vn -19.03911100 -98.17083200 0.00000000
vn 0.00000000 0.00000000 -100.00000000
vn -26.49815000 -96.42535000 0.00000000
vn 0.00000000 0.00000000 -100.00000000
vn -33.80168800 -94.11400500 0.00000000
vn -40.90686400 -91.25036200 0.00000000
vn 0.00000000 0.00000000 -100.00000000
vn 0.00000000 0.00000000 -100.00000000
vn -47.77198200 -87.85122500 0.00000000
vn 0.00000000 0.00000000 -100.00000000
vn -54.35675500 -83.93654300 0.00000000
vn -60.62254100 -79.52928700 0.00000000
vn 0.00000000 0.00000000 -100.00000000
vn 0.00000000 0.00000000 -100.00000000
vn -66.53257000 -74.65532200 0.00000000
vn -72.05215900 -69.34325000 0.00000000
vn 0.00000000 0.00000000 -100.00000000
vn 0.00000000 0.00000000 -100.00000000
vn -77.14891800 -63.62424400 0.00000000
vn -81.79293600 -57.53186600 0.00000000
vn 0.00000000 0.00000000 -100.00000000
vn -85.95696100 -51.10186800 0.00000000
vn 0.00000000 0.00000000 -100.00000000
vn -89.61655600 -44.37198400 0.00000000
vn 0.00000000 0.00000000 -100.00000000
vn 0.00000000 0.00000000 -100.00000000
vn -92.75024500 -37.38170700 0.00000000
vn -95.33963900 -30.17206000 0.00000000
vn 0.00000000 0.00000000 -100.00000000
vn -97.36954200 -22.78535100 0.00000000
vn 0.00000000 0.00000000 -100.00000000
vn 0.00000000 0.00000000 -100.00000000
vn -98.82804200 -15.26492800 0.00000000
vn -99.70658000 -7.65492500 0.00000000
vn 0.00000000 0.00000000 -100.00000000
vn 0.00000000 -93.96926200 34.20201400
vn 0.00000000 -100.00000000 0.00000000
vn 100.00000000 0.00000000 0.00000000
vn 0.00000000 -100.00000000 0.00000000
vn -100.00000000 0.00000000 -0.00000000
vn 0.00000000 -93.96926200 34.20201400
vn 0.00000000 -100.00000000 0.00000000
vn 0.00000000 0.00000000 100.00000000
vn -100.00000000 0.00000000 -0.00000000
vn 0.00000000 0.00000000 100.00000000
vn 0.00000000 -100.00000000 0.00000000
vn 100.00000000 0.00000000 0.00000000
vn 100.00000000 0.00000000 0.00000000
vn 0.00000000 -100.00000000 0.00000000
vn 0.00000000 -93.96926200 34.20201400
vn -100.00000000 0.00000000 0.00000000
vn 0.00000000 -93.96926200 34.20201400
vn 0.00000000 -100.00000000 0.00000000
vn -100.00000000 0.00000000 0.00000000
vn 0.00000000 -100.00000000 0.00000000
vn 0.00000000 0.00000000 -100.00000000
vn 0.00000000 -100.00000000 0.00000000
vn 0.00000000 0.00000000 -100.00000000
vn 100.00000000 0.00000000 0.00000000
vn 100.00000000 0.00000000 0.00000000
vn 0.00000000 100.00000000 0.00000000
vn 0.00000000 -93.96926200 34.20201400
vn 0.00000000 0.00000000 -100.00000000
vn 0.00000000 100.00000000 0.00000000
vn 100.00000000 0.00000000 0.00000000
vn 0.00000000 0.00000000 -100.00000000
vn 0.00000000 100.00000000 0.00000000
vn -100.00000000 0.00000000 0.00000000
vn 0.00000000 100.00000000 0.00000000
vn -100.00000000 0.00000000 0.00000000
vn 0.00000000 -93.96926200 34.20201400
vn 0.00000000 0.00000000 100.00000000
vn 0.00000000 -100.00000000 0.00000000
vn -100.00000000 0.00000000 -0.00000000
vn 100.00000000 0.00000000 0.00000000
vn 0.00000000 -100.00000000 0.00000000
vn 0.00000000 0.00000000 100.00000000
vn -100.00000000 0.00000000 -0.00000000
vn 0.00000000 -93.96926200 34.20201400
vn 0.00000000 -100.00000000 0.00000000
vn 0.00000000 -100.00000000 0.00000000
vn 0.00000000 -93.96926200 34.20201400
vn 100.00000000 0.00000000 0.00000000
vn 0.00000000 0.00000000 -100.00000000
vn 0.00000000 -100.00000000 0.00000000
vn 55.47001900 0.00000000 -83.20503000
vn 0.00000000 0.00000000 -100.00000000
vn -100.00000000 0.00000000 0.00000000
vn -0.00000000 -100.00000000 0.00000000
vn -55.47001900 0.00000000 -83.20503000
vn -100.00000000 0.00000000 0.00000000
vn -0.00000000 -100.00000000 0.00000000
vn -55.47001900 0.00000000 -83.20503000
vn -100.00000000 0.00000000 0.00000000
vn 0.00000000 100.00000000 0.00000000
vn 0.00000000 100.00000000 0.00000000
vn 0.00000000 0.00000000 -100.00000000
vn -100.00000000 0.00000000 0.00000000
vn -55.47001900 0.00000000 -83.20503000
vn 0.00000000 0.00000000 -100.00000000
vn 0.00000000 100.00000000 0.00000000
vn -0.00000000 -100.00000000 0.00000000
vn -55.47001900 0.00000000 -83.20503000
vn 0.00000000 0.00000000 -100.00000000
vn 0.00000000 100.00000000 0.00000000
vn 0.00000000 0.00000000 -100.00000000
vn 55.47001900 0.00000000 -83.20503000
f 1//1 4//4 12//12
f 12//12 4//4 7//7
f 11//11 8//8 16//16
f 16//16 8//8 14//14
f 9//9 6//6 15//15
f 15//15 6//6 19//19
f 20//20 23//23 13//13
f 13//13 23//23 18//18
f 5//5 2//2 21//21
f 21//21 2//2 24//24
f 3//3 10//10 22//22
f 22//22 10//10 17//17
f 25//25 29//29 34//34
f 34//34 29//29 33//33
f 39//39 41//41 48//48
f 48//48 41//41 45//45
f 35//35 32//32 49//49
f 47//47 44//44 54//54
f 55//55 58//58 65//65
f 65//65 58//58 63//63
f 69//69 70//70 76//76
f 76//76 70//70 73//73
f 60//60 57//57 81//81
f 72//72 68//68 82//82
f 64//64 61//61 86//86
f 85//85 62//62 109//109
f 109//109 62//62 106//106
f 106//106 62//62 102//102
f 106//106 102//102 104//104
f 62//62 59//59 102//102
f 102//102 59//59 97//97
f 97//97 59//59 93//93
f 97//97 93//93 96//96
f 80//80 89//89 59//59
f 59//59 89//89 93//93
f 30//30 26//26 113//113
f 50//50 31//31 90//90
f 90//90 31//31 91//91
f 91//91 31//31 28//28
f 91//91 28//28 120//120
f 120//120 28//28 115//115
f 115//115 28//28 114//114
f 40//40 37//37 121//121
f 123//123 38//38 128//128
f 128//128 38//38 124//124
f 124//124 38//38 46//46
f 124//124 46//46 108//108
f 108//108 46//46 110//110
f 110//110 46//46 53//53
f 77//77 74//74 130//130
f 87//87 111//111 66//66
f 66//66 111//111 285//285
f 66//66 285//285 287//287
f 52//52 43//43 111//111
f 111//111 43//43 281//281
f 111//111 281//281 283//283
f 42//42 368//368 43//43
f 43//43 368//368 369//369
f 43//43 369//369 372//372
f 122//122 127//127 42//42
f 42//42 127//127 202//202
f 42//42 202//202 204//204
f 132//132 75//75 127//127
f 127//127 75//75 197//197
f 127//127 197//197 199//199
f 71//71 325//325 75//75
f 75//75 325//325 327//327
f 75//75 327//327 329//329
f 83//83 116//116 71//71
f 71//71 116//116 165//165
f 71//71 165//165 168//168
f 112//112 27//27 116//116
f 116//116 27//27 162//162
f 116//116 162//162 164//164
f 36//36 449//449 27//27
f 27//27 449//449 452//452
f 27//27 452//452 453//453
f 51//51 88//88 36//36
f 36//36 88//88 274//274
f 36//36 274//274 276//276
f 79//79 56//56 88//88
f 88//88 56//56 270//270
f 88//88 270//270 272//272
f 66//66 407//407 56//56
f 56//56 407//407 409//409
f 56//56 409//409 412//412
f 135//135 472//472 133//133
f 133//133 472//472 474//474
f 133//133 474//474 180//180
f 180//180 474//474 178//178
f 178//178 474//474 476//476
f 178//178 476//476 175//175
f 175//175 476//476 477//477
f 175//175 477//477 173//173
f 173//173 477//477 480//480
f 173//173 480//480 71//71
f 71//71 480//480 481//481
f 71//71 481//481 484//484
f 135//135 138//138 472//472
f 472//472 138//138 470//470
f 470//470 138//138 140//140
f 470//470 140//140 467//467
f 467//467 140//140 141//141
f 467//467 141//141 144//144
f 467//467 144//144 466//466
f 466//466 144//144 146//146
f 466//466 146//146 147//147
f 466//466 147//147 464//464
f 464//464 147//147 149//149
f 464//464 149//149 461//461
f 461//461 149//149 152//152
f 461//461 152//152 460//460
f 460//460 152//152 153//153
f 460//460 153//153 27//27
f 27//27 153//153 155//155
f 27//27 155//155 158//158
f 158//158 160//160 27//27
f 27//27 160//160 162//162
f 164//164 165//165 116//116
f 168//168 170//170 71//71
f 71//71 170//170 172//172
f 71//71 172//172 173//173
f 184//184 341//341 182//182
f 182//182 341//341 344//344
f 182//182 344//344 227//227
f 227//227 344//344 226//226
f 226//226 344//344 346//346
f 226//226 346//346 224//224
f 224//224 346//346 348//348
f 224//224 348//348 222//222
f 222//222 348//348 219//219
f 219//219 348//348 349//349
f 219//219 349//349 217//217
f 217//217 349//349 216//216
f 216//216 349//349 351//351
f 216//216 351//351 214//214
f 214//214 351//351 354//354
f 214//214 354//354 211//211
f 211//211 354//354 355//355
f 211//211 355//355 209//209
f 209//209 355//355 42//42
f 209//209 42//42 207//207
f 207//207 42//42 205//205
f 205//205 42//42 204//204
f 184//184 186//186 341//341
f 341//341 186//186 339//339
f 339//339 186//186 187//187
f 339//339 187//187 337//337
f 337//337 187//187 190//190
f 337//337 190//190 335//335
f 335//335 190//190 75//75
f 335//335 75//75 333//333
f 333//333 75//75 332//332
f 332//332 75//75 329//329
f 190//190 191//191 75//75
f 75//75 191//191 193//193
f 75//75 193//193 195//195
f 195//195 197//197 75//75
f 199//199 202//202 127//127
f 276//276 230//230 36//36
f 36//36 230//230 231//231
f 36//36 231//231 234//234
f 36//36 234//234 437//437
f 437//437 234//234 235//235
f 437//437 235//235 436//436
f 436//436 235//235 238//238
f 436//436 238//238 434//434
f 434//434 238//238 240//240
f 434//434 240//240 432//432
f 432//432 240//240 242//242
f 432//432 242//242 243//243
f 432//432 243//243 430//430
f 430//430 243//243 245//245
f 430//430 245//245 248//248
f 430//430 248//248 428//428
f 428//428 248//248 250//250
f 428//428 250//250 425//425
f 425//425 250//250 251//251
f 425//425 251//251 253//253
f 425//425 253//253 424//424
f 424//424 253//253 255//255
f 424//424 255//255 258//258
f 424//424 258//258 422//422
f 422//422 258//258 260//260
f 422//422 260//260 420//420
f 420//420 260//260 262//262
f 420//420 262//262 418//418
f 418//418 262//262 56//56
f 418//418 56//56 416//416
f 416//416 56//56 413//413
f 413//413 56//56 412//412
f 262//262 264//264 56//56
f 56//56 264//264 266//266
f 56//56 266//266 268//268
f 268//268 270//270 56//56
f 272//272 274//274 88//88
f 323//323 277//277 43//43
f 43//43 277//277 279//279
f 43//43 279//279 281//281
f 283//283 285//285 111//111
f 287//287 290//290 66//66
f 66//66 290//290 292//292
f 66//66 292//292 294//294
f 296//296 396//396 294//294
f 294//294 396//396 398//398
f 294//294 398//398 66//66
f 66//66 398//398 399//399
f 66//66 399//399 402//402
f 396//396 296//296 394//394
f 394//394 296//296 297//297
f 394//394 297//297 391//391
f 391//391 297//297 300//300
f 391//391 300//300 302//302
f 391//391 302//302 389//389
f 389//389 302//302 303//303
f 389//389 303//303 305//305
f 389//389 305//305 387//387
f 387//387 305//305 308//308
f 387//387 308//308 385//385
f 385//385 308//308 309//309
f 385//385 309//309 312//312
f 385//385 312//312 383//383
f 383//383 312//312 314//314
f 383//383 314//314 316//316
f 383//383 316//316 381//381
f 381//381 316//316 317//317
f 381//381 317//317 379//379
f 379//379 317//317 320//320
f 379//379 320//320 378//378
f 378//378 320//320 321//321
f 378//378 321//321 43//43
f 43//43 321//321 323//323
f 355//355 357//357 42//42
f 42//42 357//357 359//359
f 42//42 359//359 361//361
f 361//361 364//364 42//42
f 42//42 364//364 366//366
f 42//42 366//366 368//368
f 372//372 374//374 43//43
f 43//43 374//374 376//376
f 43//43 376//376 378//378
f 402//402 403//403 66//66
f 66//66 403//403 405//405
f 66//66 405//405 407//407
f 437//437 439//439 36//36
f 36//36 439//439 441//441
f 36//36 441//441 444//444
f 444//444 446//446 36//36
f 36//36 446//446 448//448
f 36//36 448//448 449//449
f 453//453 456//456 27//27
f 27//27 456//456 458//458
f 27//27 458//458 460//460
f 484//484 486//486 71//71
f 71//71 486//486 488//488
f 71//71 488//488 325//325
f 491//491 698//698 490//490
f 490//490 698//698 700//700
f 490//490 700//700 536//536
f 536//536 700//700 534//534
f 534//534 700//700 702//702
f 534//534 702//702 531//531
f 531//531 702//702 704//704
f 531//531 704//704 530//530
f 530//530 704//704 527//527
f 527//527 704//704 705//705
f 527//527 705//705 525//525
f 525//525 705//705 523//523
f 523//523 705//705 707//707
f 523//523 707//707 521//521
f 521//521 707//707 710//710
f 521//521 710//710 519//519
f 519//519 710//710 712//712
f 519//519 712//712 517//517
f 517//517 712//712 713//713
f 517//517 713//713 515//515
f 515//515 713//713 715//715
f 515//515 715//715 718//718
f 491//491 493//493 698//698
f 698//698 493//493 696//696
f 696//696 493//493 496//496
f 696//696 496//496 694//694
f 694//694 496//496 498//498
f 694//694 498//498 691//691
f 691//691 498//498 690//690
f 690//690 498//498 500//500
f 690//690 500//500 688//688
f 688//688 500//500 686//686
f 686//686 500//500 501//501
f 686//686 501//501 684//684
f 684//684 501//501 682//682
f 682//682 501//501 573//573
f 682//682 573//573 844//844
f 844//844 573//573 841//841
f 841//841 573//573 576//576
f 841//841 576//576 840//840
f 840//840 576//576 838//838
f 838//838 576//576 577//577
f 838//838 577//577 835//835
f 835//835 577//577 834//834
f 834//834 577//577 580//580
f 834//834 580//580 832//832
f 832//832 580//580 581//581
f 832//832 581//581 830//830
f 830//830 581//581 584//584
f 830//830 584//584 538//538
f 573//573 501//501 572//572
f 572//572 501//501 503//503
f 572//572 503//503 570//570
f 570//570 503//503 505//505
f 570//570 505//505 568//568
f 568//568 505//505 508//508
f 568//568 508//508 591//591
f 591//591 508//508 589//589
f 589//589 508//508 509//509
f 589//589 509//509 587//587
f 587//587 509//509 511//511
f 587//587 511//511 586//586
f 586//586 511//511 514//514
f 586//586 514//514 724//724
f 724//724 514//514 722//722
f 722//722 514//514 719//719
f 719//719 514//514 718//718
f 718//718 514//514 515//515
f 830//830 538//538 827//827
f 827//827 538//538 540//540
f 827//827 540//540 542//542
f 827//827 542//542 826//826
f 826//826 542//542 543//543
f 826//826 543//543 823//823
f 823//823 543//543 545//545
f 823//823 545//545 547//547
f 823//823 547//547 822//822
f 822//822 547//547 549//549
f 822//822 549//549 552//552
f 822//822 552//552 819//819
f 819//819 552//552 553//553
f 819//819 553//553 817//817
f 817//817 553//553 555//555
f 817//817 555//555 816//816
f 816//816 555//555 558//558
f 816//816 558//558 813//813
f 813//813 558//558 560//560
f 813//813 560//560 811//811
f 811//811 560//560 809//809
f 809//809 560//560 562//562
f 809//809 562//562 807//807
f 807//807 562//562 806//806
f 806//806 562//562 633//633
f 806//806 633//633 804//804
f 804//804 633//633 801//801
f 801//801 633//633 800//800
f 800//800 633//633 635//635
f 800//800 635//635 797//797
f 797//797 635//635 795//795
f 795//795 635//635 638//638
f 795//795 638//638 793//793
f 793//793 638//638 640//640
f 793//793 640//640 791//791
f 791//791 640//640 641//641
f 791//791 641//641 789//789
f 789//789 641//641 643//643
f 789//789 643//643 787//787
f 787//787 643//643 646//646
f 787//787 646//646 648//648
f 633//633 562//562 680//680
f 680//680 562//562 563//563
f 680//680 563//563 678//678
f 678//678 563//563 566//566
f 678//678 566//566 676//676
f 676//676 566//566 568//568
f 676//676 568//568 591//591
f 591//591 594//594 676//676
f 676//676 594//594 674//674
f 674//674 594//594 596//596
f 674//674 596//596 671//671
f 671//671 596//596 597//597
f 671//671 597//597 669//669
f 669//669 597//597 763//763
f 669//669 763//763 766//766
f 600//600 759//759 597//597
f 597//597 759//759 761//761
f 597//597 761//761 763//763
f 601//601 755//755 600//600
f 600//600 755//755 757//757
f 600//600 757//757 759//759
f 603//603 751//751 601//601
f 601//601 751//751 753//753
f 601//601 753//753 755//755
f 751//751 603//603 750//750
f 750//750 603//603 606//606
f 750//750 606//606 748//748
f 748//748 606//606 607//607
f 748//748 607//607 610//610
f 748//748 610//610 746//746
f 746//746 610//610 612//612
f 746//746 612//612 613//613
f 746//746 613//613 744//744
f 744//744 613//613 615//615
f 744//744 615//615 742//742
f 742//742 615//615 617//617
f 742//742 617//617 619//619
f 742//742 619//619 739//739
f 739//739 619//619 622//622
f 739//739 622//622 623//623
f 739//739 623//623 738//738
f 738//738 623//623 625//625
f 738//738 625//625 736//736
f 736//736 625//625 628//628
f 736//736 628//628 734//734
f 734//734 628//628 629//629
f 734//734 629//629 732//732
f 732//732 629//629 632//632
f 732//732 632//632 730//730
f 730//730 632//632 728//728
f 728//728 632//632 586//586
f 728//728 586//586 725//725
f 725//725 586//586 724//724
f 787//787 648//648 786//786
f 786//786 648//648 649//649
f 786//786 649//649 651//651
f 786//786 651//651 784//784
f 784//784 651//651 654//654
f 784//784 654//654 782//782
f 782//782 654//654 656//656
f 782//782 656//656 657//657
f 782//782 657//657 780//780
f 780//780 657//657 659//659
f 780//780 659//659 661//661
f 780//780 661//661 777//777
f 777//777 661//661 664//664
f 777//777 664//664 776//776
f 776//776 664//664 666//666
f 776//776 666//666 774//774
f 774//774 666//666 771//771
f 771//771 666//666 667//667
f 771//771 667//667 769//769
f 769//769 667//667 767//767
f 767//767 667//667 669//669
f 767//767 669//669 766//766
f 848//848 851//851 846//846
f 846//846 851//851 866//866
f 866//866 851//851 855//855
f 866//866 855//855 864//864
f 864//864 855//855 862//862
f 862//862 855//855 858//858
f 869//869 847//847 874//874
f 874//874 847//847 868//868
f 873//873 876//876 870//870
f 870//870 876//876 878//878
f 854//854 852//852 886//886
f 886//886 852//852 881//881
f 887//887 883//883 849//849
f 849//849 883//883 853//853
f 879//879 877//877 860//860
f 860//860 877//877 863//863
f 892//892 857//857 884//884
f 884//884 857//857 856//856
f 890//890 885//885 889//889
f 889//889 885//885 882//882
f 850//850 845//845 888//888
f 888//888 845//845 871//871
f 888//888 871//871 891//891
f 891//891 871//871 880//880
f 891//891 880//880 861//861
f 861//861 859//859 891//891
f 100//100 894//894 103//103
f 131//131 129//129 78//78
f 78//78 129//129 125//125
f 78//78 125//125 900//900
f 900//900 125//125 897//897
f 900//900 903//903 78//78
f 78//78 903//903 67//67
f 67//67 903//903 118//118
f 67//67 118//118 117//117
f 903//903 907//907 118//118
f 117//117 84//84 67//67
f 904//904 910//910 905//905
f 911//911 901//901 898//898
f 914//914 99//99 94//94
f 896//896 126//126 913//913
f 913//913 126//126 865//865
f 913//913 865//865 875//875
f 865//865 126//126 867//867
f 867//867 126//126 107//107
f 867//867 107//107 893//893
f 893//893 107//107 105//105
f 867//867 893//893 872//872
f 872//872 893//893 915//915
f 872//872 915//915 92//92
f 92//92 915//915 95//95
f 92//92 119//119 872//872
f 872//872 119//119 875//875
f 875//875 119//119 909//909
f 875//875 909//909 913//913
f 119//119 906//906 909//909
f 895//895 101//101 916//916
f 916//916 101//101 98//98
f 912//912 908//908 899//899
f 899//899 908//908 902//902
f 487//487 683//683 326//326
f 326//326 683//683 681//681
f 326//326 681//681 328//328
f 328//328 681//681 843//843
f 328//328 843//843 842//842
f 487//487 485//485 683//683
f 683//683 485//485 685//685
f 685//685 485//485 483//483
f 685//685 483//483 687//687
f 687//687 483//483 482//482
f 687//687 482//482 689//689
f 689//689 482//482 479//479
f 689//689 479//479 692//692
f 692//692 479//479 478//478
f 692//692 478//478 693//693
f 693//693 478//478 475//475
f 693//693 475//475 695//695
f 695//695 475//475 473//473
f 695//695 473//473 697//697
f 697//697 473//473 471//471
f 697//697 471//471 699//699
f 699//699 471//471 469//469
f 699//699 469//469 701//701
f 701//701 469//469 468//468
f 701//701 468//468 703//703
f 703//703 468//468 465//465
f 703//703 465//465 706//706
f 706//706 465//465 463//463
f 706//706 463//463 708//708
f 708//708 463//463 462//462
f 708//708 462//462 709//709
f 709//709 462//462 459//459
f 709//709 459//459 711//711
f 711//711 459//459 457//457
f 711//711 457//457 714//714
f 714//714 457//457 455//455
f 714//714 455//455 716//716
f 716//716 455//455 454//454
f 716//716 454//454 717//717
f 717//717 454//454 451//451
f 717//717 451//451 720//720
f 720//720 451//451 450//450
f 720//720 450//450 721//721
f 721//721 450//450 447//447
f 721//721 447//447 723//723
f 723//723 447//447 445//445
f 723//723 445//445 726//726
f 726//726 445//445 443//443
f 726//726 443//443 727//727
f 727//727 443//443 442//442
f 727//727 442//442 729//729
f 729//729 442//442 440//440
f 729//729 440//440 731//731
f 731//731 440//440 438//438
f 731//731 438//438 733//733
f 733//733 438//438 435//435
f 733//733 435//435 735//735
f 735//735 435//435 433//433
f 735//735 433//433 737//737
f 737//737 433//433 431//431
f 737//737 431//431 740//740
f 740//740 431//431 429//429
f 740//740 429//429 741//741
f 741//741 429//429 427//427
f 741//741 427//427 743//743
f 743//743 427//427 426//426
f 743//743 426//426 745//745
f 745//745 426//426 423//423
f 745//745 423//423 747//747
f 747//747 423//423 421//421
f 747//747 421//421 749//749
f 749//749 421//421 419//419
f 749//749 419//419 752//752
f 752//752 419//419 417//417
f 752//752 417//417 754//754
f 754//754 417//417 415//415
f 754//754 415//415 756//756
f 756//756 415//415 414//414
f 756//756 414//414 758//758
f 758//758 414//414 411//411
f 758//758 411//411 760//760
f 760//760 411//411 410//410
f 760//760 410//410 762//762
f 762//762 410//410 408//408
f 762//762 408//408 764//764
f 764//764 408//408 406//406
f 764//764 406//406 765//765
f 765//765 406//406 404//404
f 765//765 404//404 768//768
f 768//768 404//404 401//401
f 768//768 401//401 770//770
f 770//770 401//401 400//400
f 770//770 400//400 772//772
f 772//772 400//400 397//397
f 772//772 397//397 773//773
f 773//773 397//397 395//395
f 773//773 395//395 775//775
f 775//775 395//395 393//393
f 775//775 393//393 778//778
f 778//778 393//393 392//392
f 778//778 392//392 779//779
f 779//779 392//392 390//390
f 779//779 390//390 781//781
f 781//781 390//390 388//388
f 781//781 388//388 783//783
f 783//783 388//388 386//386
f 783//783 386//386 785//785
f 785//785 386//386 384//384
f 785//785 384//384 788//788
f 788//788 384//384 382//382
f 788//788 382//382 790//790
f 790//790 382//382 380//380
f 790//790 380//380 792//792
f 792//792 380//380 377//377
f 792//792 377//377 794//794
f 794//794 377//377 375//375
f 794//794 375//375 796//796
f 796//796 375//375 373//373
f 796//796 373//373 798//798
f 798//798 373//373 371//371
f 798//798 371//371 799//799
f 799//799 371//371 370//370
f 799//799 370//370 802//802
f 802//802 370//370 367//367
f 802//802 367//367 803//803
f 803//803 367//367 365//365
f 803//803 365//365 805//805
f 805//805 365//365 363//363
f 805//805 363//363 808//808
f 808//808 363//363 362//362
f 808//808 362//362 810//810
f 810//810 362//362 360//360
f 810//810 360//360 812//812
f 812//812 360//360 358//358
f 812//812 358//358 814//814
f 814//814 358//358 356//356
f 814//814 356//356 815//815
f 815//815 356//356 353//353
f 815//815 353//353 818//818
f 818//818 353//353 352//352
f 818//818 352//352 820//820
f 820//820 352//352 350//350
f 820//820 350//350 821//821
f 821//821 350//350 347//347
f 821//821 347//347 824//824
f 824//824 347//347 345//345
f 824//824 345//345 825//825
f 825//825 345//345 343//343
f 825//825 343//343 828//828
f 828//828 343//343 342//342
f 828//828 342//342 829//829
f 829//829 342//342 340//340
f 829//829 340//340 831//831
f 831//831 340//340 338//338
f 831//831 338//338 833//833
f 833//833 338//338 336//336
f 833//833 336//336 836//836
f 836//836 336//336 334//334
f 836//836 334//334 837//837
f 837//837 334//334 331//331
f 837//837 331//331 839//839
f 839//839 331//331 330//330
f 839//839 330//330 842//842
f 842//842 330//330 328//328
f 179//179 492//492 134//134
f 134//134 492//492 489//489
f 134//134 489//489 136//136
f 136//136 489//489 535//535
f 136//136 535//535 137//137
f 137//137 535//535 533//533
f 137//137 533//533 139//139
f 139//139 533//533 532//532
f 139//139 532//532 142//142
f 142//142 532//532 529//529
f 142//142 529//529 143//143
f 143//143 529//529 528//528
f 143//143 528//528 145//145
f 145//145 528//528 526//526
f 145//145 526//526 148//148
f 148//148 526//526 524//524
f 148//148 524//524 150//150
f 150//150 524//524 522//522
f 150//150 522//522 151//151
f 151//151 522//522 520//520
f 151//151 520//520 154//154
f 154//154 520//520 518//518
f 154//154 518//518 156//156
f 156//156 518//518 516//516
f 156//156 516//516 157//157
f 157//157 516//516 513//513
f 157//157 513//513 159//159
f 159//159 513//513 512//512
f 159//159 512//512 161//161
f 161//161 512//512 510//510
f 161//161 510//510 163//163
f 163//163 510//510 507//507
f 163//163 507//507 166//166
f 166//166 507//507 506//506
f 166//166 506//506 167//167
f 167//167 506//506 504//504
f 167//167 504//504 169//169
f 169//169 504//504 502//502
f 169//169 502//502 171//171
f 171//171 502//502 499//499
f 171//171 499//499 174//174
f 174//174 499//499 497//497
f 174//174 497//497 176//176
f 176//176 497//497 495//495
f 176//176 495//495 177//177
f 177//177 495//495 494//494
f 177//177 494//494 179//179
f 179//179 494//494 492//492
f 228//228 539//539 181//181
f 181//181 539//539 537//537
f 181//181 537//537 183//183
f 183//183 537//537 583//583
f 183//183 583//583 185//185
f 185//185 583//583 582//582
f 185//185 582//582 188//188
f 188//188 582//582 579//579
f 188//188 579//579 189//189
f 189//189 579//579 578//578
f 189//189 578//578 192//192
f 192//192 578//578 575//575
f 192//192 575//575 194//194
f 194//194 575//575 574//574
f 194//194 574//574 196//196
f 196//196 574//574 571//571
f 196//196 571//571 198//198
f 198//198 571//571 569//569
f 198//198 569//569 200//200
f 200//200 569//569 567//567
f 200//200 567//567 201//201
f 201//201 567//567 565//565
f 201//201 565//565 203//203
f 203//203 565//565 564//564
f 203//203 564//564 206//206
f 206//206 564//564 561//561
f 206//206 561//561 208//208
f 208//208 561//561 559//559
f 208//208 559//559 210//210
f 210//210 559//559 557//557
f 210//210 557//557 212//212
f 212//212 557//557 556//556
f 212//212 556//556 213//213
f 213//213 556//556 554//554
f 213//213 554//554 215//215
f 215//215 554//554 551//551
f 215//215 551//551 218//218
f 218//218 551//551 550//550
f 218//218 550//550 220//220
f 220//220 550//550 548//548
f 220//220 548//548 221//221
f 221//221 548//548 546//546
f 221//221 546//546 223//223
f 223//223 546//546 544//544
f 223//223 544//544 225//225
f 225//225 544//544 541//541
f 225//225 541//541 228//228
f 228//228 541//541 539//539
f 275//275 588//588 229//229
f 229//229 588//588 585//585
f 229//229 585//585 232//232
f 232//232 585//585 631//631
f 232//232 631//631 233//233
f 233//233 631//631 630//630
f 233//233 630//630 236//236
f 236//236 630//630 627//627
f 236//236 627//627 237//237
f 237//237 627//627 626//626
f 237//237 626//626 239//239
f 239//239 626//626 624//624
f 239//239 624//624 241//241
f 241//241 624//624 621//621
f 241//241 621//621 244//244
f 244//244 621//621 620//620
f 244//244 620//620 246//246
f 246//246 620//620 618//618
f 246//246 618//618 247//247
f 247//247 618//618 616//616
f 247//247 616//616 249//249
f 249//249 616//616 614//614
f 249//249 614//614 252//252
f 252//252 614//614 611//611
f 252//252 611//611 254//254
f 254//254 611//611 609//609
f 254//254 609//609 256//256
f 256//256 609//609 608//608
f 256//256 608//608 257//257
f 257//257 608//608 605//605
f 257//257 605//605 259//259
f 259//259 605//605 604//604
f 259//259 604//604 261//261
f 261//261 604//604 602//602
f 261//261 602//602 263//263
f 263//263 602//602 599//599
f 263//263 599//599 265//265
f 265//265 599//599 598//598
f 265//265 598//598 267//267
f 267//267 598//598 595//595
f 267//267 595//595 269//269
f 269//269 595//595 593//593
f 269//269 593//593 271//271
f 271//271 593//593 592//592
f 271//271 592//592 273//273
f 273//273 592//592 590//590
f 273//273 590//590 275//275
f 275//275 590//590 588//588
f 324//324 636//636 278//278
f 278//278 636//636 634//634
f 278//278 634//634 280//280
f 280//280 634//634 679//679
f 280//280 679//679 282//282
f 282//282 679//679 677//677
f 282//282 677//677 284//284
f 284//284 677//677 675//675
f 284//284 675//675 286//286
f 286//286 675//675 673//673
f 286//286 673//673 288//288
f 288//288 673//673 672//672
f 288//288 672//672 289//289
f 289//289 672//672 670//670
f 289//289 670//670 291//291
f 291//291 670//670 668//668
f 291//291 668//668 293//293
f 293//293 668//668 665//665
f 293//293 665//665 295//295
f 295//295 665//665 663//663
f 295//295 663//663 298//298
f 298//298 663//663 662//662
f 298//298 662//662 299//299
f 299//299 662//662 660//660
f 299//299 660//660 301//301
f 301//301 660//660 658//658
f 301//301 658//658 304//304
f 304//304 658//658 655//655
f 304//304 655//655 306//306
f 306//306 655//655 653//653
f 306//306 653//653 307//307
f 307//307 653//653 652//652
f 307//307 652//652 310//310
f 310//310 652//652 650//650
f 310//310 650//650 311//311
f 311//311 650//650 647//647
f 311//311 647//647 313//313
f 313//313 647//647 645//645
f 313//313 645//645 315//315
f 315//315 645//645 644//644
f 315//315 644//644 318//318
f 318//318 644//644 642//642
f 318//318 642//642 319//319
f 319//319 642//642 639//639
f 319//319 639//639 322//322
f 322//322 639//639 637//637
f 322//322 637//637 324//324
f 324//324 637//637 636//636